<svg width="2285" height="383" xmlns="http://www.w3.org/2000/svg" xmlns:xlink="http://www.w3.org/1999/xlink" overflow="hidden"><defs><clipPath id="clip0"><rect x="1144" y="1046" width="2285" height="383"/></clipPath></defs><g clip-path="url(#clip0)" transform="translate(-1144 -1046)"><path d="M1144 1238 1226.5 1073 1444.5 1073 1527 1238 1444.5 1403 1226.5 1403Z" fill="#ECE340" fill-rule="evenodd"/><path d="M1335 1046 1500 1128.5 1500 1346.5 1335 1429 1170 1346.5 1170 1128.5Z" fill="#ECE340" fill-rule="evenodd"/><path d="M1236 1238.5C1290.95 1238.5 1335.5 1283.05 1335.5 1338" stroke="#FFFFFF" stroke-width="6.875" stroke-miterlimit="8" fill="none" fill-rule="evenodd"/><path d="M1335.5 1138.5C1335.5 1193.73 1290.95 1238.5 1236 1238.5" stroke="#FFFFFF" stroke-width="6.875" stroke-miterlimit="8" fill="none" fill-rule="evenodd"/><path d="M1436.5 1238.5C1381.27 1238.5 1336.5 1193.73 1336.5 1138.5" stroke="#FFFFFF" stroke-width="6.875" stroke-miterlimit="8" fill="none" fill-rule="evenodd"/><path d="M1336.5 1338C1336.5 1283.05 1381.27 1238.5 1436.5 1238.5" stroke="#FFFFFF" stroke-width="6.875" stroke-miterlimit="8" fill="none" fill-rule="evenodd"/><path d="M1252 1238.5C1298.67 1238.5 1336.5 1276.33 1336.5 1323" stroke="#FFFFFF" stroke-width="6.875" stroke-miterlimit="8" fill="none" fill-rule="evenodd"/><path d="M1336.5 1154.5C1336.5 1200.89 1298.67 1238.5 1252 1238.5" stroke="#FFFFFF" stroke-width="6.875" stroke-miterlimit="8" fill="none" fill-rule="evenodd"/><path d="M1421 1238.5C1374.33 1238.5 1336.5 1200.89 1336.5 1154.5" stroke="#FFFFFF" stroke-width="6.875" stroke-miterlimit="8" fill="none" fill-rule="evenodd"/><path d="M1336.5 1323C1336.5 1276.33 1374.33 1238.5 1421 1238.5" stroke="#FFFFFF" stroke-width="6.875" stroke-miterlimit="8" fill="none" fill-rule="evenodd"/><path d="M3101.84 1269.18 3068.68 1273.75C3058.47 1275.18 3050.77 1277.71 3045.58 1281.33 3040.39 1284.96 3037.79 1291.38 3037.79 1300.6 3037.79 1307.32 3040.19 1312.8 3044.98 1317.05 3049.77 1321.3 3056.14 1323.43 3064.11 1323.43 3075.03 1323.43 3084.05 1319.6 3091.17 1311.95 3098.28 1304.3 3101.84 1294.61 3101.84 1282.88ZM2936.02 1216.55C2925.63 1216.55 2916.81 1220.26 2909.56 1227.69 2902.31 1235.12 2897.84 1244.83 2896.14 1256.83L2970.39 1256.83C2970.3 1244.12 2967.23 1234.23 2961.19 1227.15 2955.15 1220.08 2946.76 1216.55 2936.02 1216.55ZM2075.52 1216.55C2061.38 1216.55 2050.19 1221.36 2041.95 1230.98 2033.72 1240.6 2029.6 1253.87 2029.6 1270.79 2029.6 1287.09 2033.76 1299.93 2042.09 1309.33 2050.41 1318.73 2061.56 1323.43 2075.52 1323.43 2089.75 1323.43 2100.7 1318.82 2108.35 1309.6 2116.01 1300.38 2119.83 1287.26 2119.83 1270.26 2119.83 1253.07 2116.01 1239.82 2108.35 1230.51 2100.7 1221.2 2089.75 1216.55 2075.52 1216.55ZM1747.03 1201.24 1771.47 1201.24 1808.66 1307.05C1809.11 1308.39 1810.05 1311.88 1811.48 1317.52L1812.29 1317.52C1812.74 1315.37 1813.63 1311.97 1814.97 1307.32L1854.05 1201.24 1876.87 1201.24 1813.63 1360.76C1802.35 1389.23 1786.51 1403.46 1766.1 1403.46 1760.37 1403.46 1755.58 1402.88 1751.73 1401.71L1751.73 1381.97C1756.47 1383.59 1760.81 1384.39 1764.75 1384.39 1775.85 1384.39 1784.18 1377.77 1789.73 1364.52L1800.74 1338.47ZM2234.98 1198.82C2240.71 1198.82 2245.1 1199.45 2248.14 1200.7L2248.14 1223.53C2244.29 1220.57 2238.74 1219.1 2231.49 1219.1 2222.09 1219.1 2214.24 1223.53 2207.93 1232.39 2201.62 1241.25 2198.46 1253.34 2198.46 1268.64L2198.46 1338.74 2176.44 1338.74 2176.44 1201.24 2198.46 1201.24 2198.46 1229.57 2199 1229.57C2202.13 1219.9 2206.92 1212.36 2213.37 1206.94 2219.81 1201.53 2227.02 1198.82 2234.98 1198.82ZM3230.7 1198.02C3240.1 1198.02 3248.29 1200.63 3255.27 1205.87 3262.25 1211.11 3267.04 1217.98 3269.64 1226.48 3279.84 1207.5 3295.06 1198.02 3315.29 1198.02 3345.55 1198.02 3360.68 1216.68 3360.68 1254.01L3360.68 1338.74 3338.66 1338.74 3338.66 1259.78C3338.66 1244.56 3336.31 1233.55 3331.61 1226.75 3326.91 1219.95 3319.01 1216.55 3307.91 1216.55 3298.51 1216.55 3290.52 1220.84 3283.94 1229.44 3277.36 1238.03 3274.07 1248.32 3274.07 1260.32L3274.07 1338.74 3252.05 1338.74 3252.05 1257.1C3252.05 1230.06 3241.62 1216.55 3220.76 1216.55 3211.09 1216.55 3203.13 1220.6 3196.86 1228.7 3190.59 1236.8 3187.46 1247.34 3187.46 1260.32L3187.46 1338.74 3165.44 1338.74 3165.44 1201.24 3187.46 1201.24 3187.46 1222.99 3188 1222.99C3197.75 1206.34 3211.99 1198.02 3230.7 1198.02ZM3075.39 1198.02C3107.71 1198.02 3123.86 1215.11 3123.86 1249.31L3123.86 1338.74 3101.84 1338.74 3101.84 1317.25 3101.31 1317.25C3091.73 1333.72 3077.63 1341.96 3059.01 1341.96 3045.31 1341.96 3034.59 1338.33 3026.85 1331.08 3019.11 1323.83 3015.23 1314.21 3015.23 1302.21 3015.23 1276.52 3030.36 1261.57 3060.62 1257.37L3101.84 1251.59C3101.84 1228.23 3092.4 1216.55 3073.51 1216.55 3056.95 1216.55 3042 1222.18 3028.66 1233.46L3028.66 1210.91C3042.18 1202.31 3057.75 1198.02 3075.39 1198.02ZM2936.42 1198.02C2954.41 1198.02 2968.33 1203.83 2978.18 1215.47 2988.03 1227.11 2992.95 1243.27 2992.95 1263.95L2992.95 1275.49 2895.87 1275.49C2896.22 1290.8 2900.34 1302.62 2908.22 1310.94 2916.1 1319.27 2926.93 1323.43 2940.72 1323.43 2956.2 1323.43 2970.44 1318.33 2983.42 1308.12L2983.42 1328.8C2971.33 1337.57 2955.35 1341.96 2935.48 1341.96 2916.05 1341.96 2900.79 1335.72 2889.69 1323.23 2878.59 1310.74 2873.04 1293.17 2873.04 1270.52 2873.04 1249.13 2879.1 1231.7 2891.23 1218.22 2903.36 1204.75 2918.43 1198.02 2936.42 1198.02ZM2331.48 1198.02C2343.56 1198.02 2354.21 1200.25 2363.43 1204.73L2363.43 1227.29C2353.23 1220.13 2342.31 1216.55 2330.67 1216.55 2316.61 1216.55 2305.09 1221.58 2296.09 1231.65 2287.1 1241.72 2282.6 1254.95 2282.6 1271.33 2282.6 1287.44 2286.83 1300.16 2295.29 1309.47 2303.75 1318.78 2315.09 1323.43 2329.33 1323.43 2341.32 1323.43 2352.6 1319.45 2363.16 1311.48L2363.16 1332.43C2352.6 1338.78 2340.07 1341.96 2325.57 1341.96 2305.96 1341.96 2290.14 1335.58 2278.1 1322.83 2266.06 1310.07 2260.04 1293.53 2260.04 1273.21 2260.04 1250.56 2266.53 1232.37 2279.51 1218.63 2292.49 1204.89 2309.81 1198.02 2331.48 1198.02ZM2077.13 1198.02C2097.63 1198.02 2113.63 1204.33 2125.14 1216.95 2136.64 1229.57 2142.39 1247.07 2142.39 1269.45 2142.39 1291.38 2136.19 1308.95 2123.79 1322.15 2111.4 1335.36 2094.77 1341.96 2073.91 1341.96 2053.59 1341.96 2037.36 1335.54 2025.23 1322.69 2013.1 1309.85 2007.04 1292.81 2007.04 1271.6 2007.04 1248.5 2013.35 1230.47 2025.97 1217.49 2038.59 1204.51 2055.65 1198.02 2077.13 1198.02ZM1638.95 1166.59 1638.95 1245.55 1662.58 1245.55C1678.16 1245.55 1690.04 1241.99 1698.23 1234.87 1706.43 1227.76 1710.52 1217.71 1710.52 1204.73 1710.52 1179.31 1695.48 1166.59 1665.4 1166.59ZM1883.65 1146.18 2017.26 1146.18 2017.26 1166.59 1961.67 1166.59 1961.67 1338.74 1939.11 1338.74 1939.11 1166.59 1883.65 1166.59ZM1616.39 1146.18 1669.3 1146.18C1689.89 1146.18 1705.84 1151.2 1717.17 1161.22 1728.49 1171.25 1734.15 1185.39 1734.15 1203.65 1734.15 1221.92 1727.87 1236.87 1715.29 1248.5 1702.71 1260.14 1685.72 1265.96 1664.33 1265.96L1638.95 1265.96 1638.95 1338.74 1616.39 1338.74ZM2717.67 1142.96C2738.62 1142.96 2756.21 1146.36 2770.44 1153.17L2770.44 1178.14C2754.87 1168.3 2736.43 1163.37 2715.12 1163.37 2693.55 1163.37 2675.87 1170.8 2662.08 1185.66 2648.3 1200.52 2641.4 1219.77 2641.4 1243.4 2641.4 1267.75 2647.8 1286.88 2660.61 1300.8 2673.41 1314.72 2690.77 1321.68 2712.71 1321.68 2727.74 1321.68 2740.77 1318.69 2751.78 1312.69L2751.78 1258.71 2709.62 1258.71 2709.62 1238.3 2774.34 1238.3 2774.34 1325.58C2755 1336.5 2733.52 1341.96 2709.89 1341.96 2682.4 1341.96 2660.18 1333.1 2643.22 1315.37 2626.25 1297.65 2617.77 1274.2 2617.77 1245.01 2617.77 1215.2 2627.19 1190.74 2646.04 1171.63 2664.88 1152.52 2688.76 1142.96 2717.67 1142.96ZM2815.44 1135.17 2837.46 1135.17 2837.46 1338.74 2815.44 1338.74ZM2396.44 1135.17 2418.46 1135.17 2418.46 1224.06 2419 1224.06C2429.56 1206.7 2444.6 1198.02 2464.11 1198.02 2495.09 1198.02 2510.57 1216.68 2510.57 1254.01L2510.57 1338.74 2488.55 1338.74 2488.55 1259.51C2488.55 1230.87 2477.9 1216.55 2456.59 1216.55 2445.85 1216.55 2436.81 1220.69 2429.47 1228.97 2422.13 1237.25 2418.46 1247.88 2418.46 1260.86L2418.46 1338.74 2396.44 1338.74Z" fill-rule="evenodd"/><path d="M3097.4 1274.39 3069.32 1278.25 3062.29 1279.47 3056.45 1281.07 3051.63 1283.03 3048.3 1284.98 3045.81 1287.39 3043.97 1290.64 3042.79 1295 3042.35 1300.57 3042.71 1304.53 3043.79 1307.96 3045.55 1310.99 3048.04 1313.73 3051.16 1315.99 3054.84 1317.63 3059.13 1318.64 3064.08 1318.96 3071.09 1318.29 3077.32 1316.43 3082.91 1313.29 3087.91 1308.89 3092.04 1303.48 3094.97 1297.42 3096.76 1290.59 3097.41 1282.55ZM3100.4 1282.79 3099.73 1291.1 3097.8 1298.46 3094.61 1305.06 3090.11 1310.95 3084.65 1315.75 3078.5 1319.21 3071.67 1321.25 3064.13 1321.97 3058.68 1321.61 3053.88 1320.49 3049.65 1318.61 3046.03 1315.98 3043.12 1312.77 3041.03 1309.18 3039.75 1305.12 3039.34 1300.59 3039.82 1294.48 3041.17 1289.49 3043.41 1285.53 3046.49 1282.56 3050.52 1280.24 3055.66 1278.18 3061.78 1276.52 3068.92 1275.28 3100.4 1270.95ZM3103.4 1269.23C3103.4 1268.79 3103.21 1268.38 3102.88 1268.1 3102.56 1267.81 3102.12 1267.68 3101.69 1267.74L3068.51 1272.3 3061.27 1273.56 3054.88 1275.28 3049.4 1277.46 3044.84 1280.05C3044.73 1280.11 3044.64 1280.19 3044.55 1280.27L3041.17 1283.52C3041.07 1283.62 3040.98 1283.74 3040.91 1283.86L3038.47 1288.18C3038.41 1288.29 3038.36 1288.4 3038.33 1288.52L3036.89 1293.84C3036.86 1293.93 3036.85 1294.02 3036.84 1294.11L3036.34 1300.48C3036.33 1300.57 3036.33 1300.65 3036.34 1300.74L3036.78 1305.55C3036.79 1305.66 3036.81 1305.76 3036.84 1305.86L3038.22 1310.24C3038.25 1310.35 3038.3 1310.45 3038.35 1310.54L3040.6 1314.42C3040.65 1314.51 3040.72 1314.6 3040.79 1314.67L3043.91 1318.11C3043.98 1318.19 3044.06 1318.26 3044.14 1318.32L3048.02 1321.13C3048.1 1321.19 3048.19 1321.24 3048.29 1321.29L3052.79 1323.29C3052.88 1323.32 3052.96 1323.35 3053.06 1323.38L3058.12 1324.56C3058.2 1324.58 3058.28 1324.59 3058.36 1324.6L3064.05 1324.97C3064.13 1324.98 3064.21 1324.98 3064.29 1324.97L3072.1 1324.22C3072.2 1324.21 3072.3 1324.19 3072.39 1324.16L3079.52 1322.04C3079.62 1322.01 3079.73 1321.96 3079.82 1321.91L3086.26 1318.28C3086.35 1318.23 3086.44 1318.17 3086.51 1318.1L3092.2 1313.1C3092.28 1313.04 3092.34 1312.97 3092.4 1312.89L3097.09 1306.76C3097.15 1306.68 3097.21 1306.6 3097.25 1306.5L3100.56 1299.63C3100.6 1299.54 3100.64 1299.45 3100.66 1299.36L3102.66 1291.73C3102.68 1291.65 3102.7 1291.56 3102.71 1291.47L3103.39 1283.04ZM3106.38 1283.28 3105.7 1291.72C3105.68 1291.98 3105.63 1292.24 3105.56 1292.49L3103.56 1300.12C3103.49 1300.4 3103.39 1300.67 3103.27 1300.93L3099.95 1307.81C3099.82 1308.08 3099.66 1308.34 3099.47 1308.59L3094.78 1314.71C3094.61 1314.95 3094.4 1315.16 3094.18 1315.36L3088.49 1320.36C3088.26 1320.56 3088 1320.74 3087.73 1320.9L3081.29 1324.52C3081 1324.69 3080.69 1324.82 3080.37 1324.91L3073.25 1327.04C3072.97 1327.12 3072.68 1327.18 3072.39 1327.21L3064.58 1327.96C3064.34 1327.98 3064.09 1327.98 3063.85 1327.97L3058.17 1327.59C3057.92 1327.58 3057.67 1327.54 3057.43 1327.48L3052.37 1326.3C3052.1 1326.23 3051.83 1326.14 3051.57 1326.03L3047.07 1324.03C3046.78 1323.9 3046.51 1323.74 3046.26 1323.56L3042.38 1320.74C3042.13 1320.56 3041.9 1320.36 3041.69 1320.13L3038.57 1316.69C3038.36 1316.46 3038.17 1316.2 3038.01 1315.92L3035.76 1312.05C3035.59 1311.76 3035.46 1311.46 3035.36 1311.14L3033.98 1306.76C3033.88 1306.46 3033.82 1306.14 3033.79 1305.82L3033.35 1301.01C3033.33 1300.76 3033.33 1300.5 3033.35 1300.25L3033.85 1293.88C3033.87 1293.6 3033.92 1293.32 3033.99 1293.05L3035.43 1287.74C3035.53 1287.38 3035.67 1287.03 3035.86 1286.7L3038.29 1282.39C3038.51 1282.01 3038.78 1281.66 3039.09 1281.36L3042.46 1278.11C3042.73 1277.85 3043.03 1277.63 3043.35 1277.45L3048.29 1274.67 3054.1 1272.38 3060.75 1270.61 3068.1 1269.33 3101.29 1264.77C3102.57 1264.59 3103.88 1264.98 3104.86 1265.84 3105.84 1266.69 3106.4 1267.93 3106.4 1269.23ZM2936.03 1221.12 2929.38 1221.73 2923.41 1223.52 2917.91 1226.57 2912.8 1230.9 2908.37 1236.28 2904.87 1242.49 2902.3 1249.54 2901.7 1252.35 2965.58 1252.35 2965.28 1248.16 2963.77 1241.26 2961.24 1235.14 2957.79 1230.13 2953.53 1226.19 2948.64 1223.4 2942.82 1221.73ZM2943.37 1218.77 2949.81 1220.62 2955.32 1223.76 2960.07 1228.15 2963.89 1233.7 2966.65 1240.36 2968.28 1247.96 2968.79 1255.35 2898 1255.35 2899.41 1248.7 2902.14 1241.23 2905.89 1234.58 2910.66 1228.78 2916.19 1224.09 2922.23 1220.74 2928.81 1218.77 2936.02 1218.11ZM2936.16 1215.11C2936.07 1215.1 2935.98 1215.1 2935.89 1215.11L2928.39 1215.8C2928.29 1215.81 2928.19 1215.82 2928.09 1215.85L2921.22 1217.92C2921.11 1217.95 2921.02 1217.99 2920.92 1218.04L2914.61 1221.54C2914.52 1221.59 2914.44 1221.64 2914.37 1221.71L2908.62 1226.58C2908.55 1226.64 2908.48 1226.71 2908.43 1226.77L2903.49 1232.77C2903.43 1232.84 2903.39 1232.91 2903.34 1232.99L2899.47 1239.87C2899.43 1239.94 2899.39 1240.01 2899.37 1240.09L2896.55 1247.77C2896.53 1247.84 2896.51 1247.91 2896.49 1247.98L2894.68 1256.54C2894.59 1256.98 2894.7 1257.45 2894.98 1257.8 2895.27 1258.15 2895.7 1258.35 2896.15 1258.35L2970.4 1258.35C2970.81 1258.35 2971.21 1258.18 2971.5 1257.88 2971.78 1257.57 2971.92 1257.16 2971.9 1256.75L2971.27 1247.75 2969.55 1239.6C2969.53 1239.51 2969.51 1239.43 2969.47 1239.34L2966.6 1232.4C2966.56 1232.31 2966.51 1232.21 2966.45 1232.13L2962.45 1226.31C2962.38 1226.22 2962.31 1226.14 2962.23 1226.06L2957.23 1221.44C2957.15 1221.36 2957.05 1221.29 2956.95 1221.24L2951.14 1217.92C2951.04 1217.86 2950.93 1217.82 2950.81 1217.79L2944.06 1215.85C2943.97 1215.82 2943.88 1215.8 2943.78 1215.8ZM2944.05 1212.81C2944.34 1212.83 2944.62 1212.89 2944.89 1212.96L2951.64 1214.9C2951.98 1215 2952.32 1215.14 2952.63 1215.32L2958.44 1218.63C2958.74 1218.8 2959.02 1219 2959.27 1219.24L2964.27 1223.86C2964.51 1224.09 2964.73 1224.34 2964.92 1224.61L2968.92 1230.43C2969.1 1230.69 2969.25 1230.96 2969.37 1231.25L2972.24 1238.19C2972.35 1238.45 2972.43 1238.71 2972.49 1238.98L2974.26 1247.54 2974.89 1256.54C2974.97 1257.79 2974.54 1259.01 2973.69 1259.92 2972.84 1260.83 2971.65 1261.35 2970.4 1261.35L2896.15 1261.35C2894.79 1261.35 2893.51 1260.74 2892.65 1259.69 2891.8 1258.63 2891.47 1257.25 2891.75 1255.92L2893.56 1247.36C2893.6 1247.15 2893.66 1246.94 2893.74 1246.74L2896.55 1239.06C2896.63 1238.83 2896.73 1238.61 2896.85 1238.39L2900.73 1231.52C2900.86 1231.29 2901.01 1231.07 2901.17 1230.87L2906.11 1224.87C2906.28 1224.66 2906.47 1224.47 2906.68 1224.29L2912.43 1219.42C2912.65 1219.23 2912.9 1219.06 2913.15 1218.92L2919.47 1215.42C2919.75 1215.26 2920.05 1215.13 2920.36 1215.04L2927.23 1212.98C2927.52 1212.89 2927.81 1212.84 2928.11 1212.81L2935.61 1212.12C2935.88 1212.1 2936.16 1212.1 2936.43 1212.12ZM2075.36 1221.1 2070.55 1221.35 2066.03 1221.94 2061.98 1222.97 2058.09 1224.45 2054.45 1226.26 2051.21 1228.47 2048.1 1231.11 2045.2 1234.16 2042.66 1237.53 2040.43 1241.25 2038.52 1245.3 2036.94 1249.7 2035.76 1254.46 2034.83 1259.66 2034.32 1265.1 2034.15 1270.99 2034.33 1276.65 2034.88 1281.97 2035.82 1286.89 2037.11 1291.46 2038.74 1295.78 2040.69 1299.68 2042.96 1303.28 2045.61 1306.55 2048.55 1309.51 2051.72 1312.04 2055.1 1314.2 2058.7 1315.94 2062.5 1317.23 2066.66 1318.23 2070.98 1318.76 2075.74 1318.98 2080.55 1318.79 2084.96 1318.15 2089.13 1317.16 2092.9 1315.8 2096.39 1314.01 2099.56 1311.9 2102.42 1309.42 2104.85 1306.8 2109.38 1299.9 2112.63 1291.57 2114.68 1281.7 2115.34 1270.03 2114.67 1258.75 2112.63 1248.75 2109.37 1240.34 2104.84 1233.33 2102.06 1230.38 2099.07 1227.81 2095.93 1225.8 2092.44 1224.15 2088.6 1222.76 2084.57 1221.86 2080.08 1221.25ZM2080.5 1218.28 2085.25 1218.94 2089.63 1219.95 2093.74 1221.45 2097.58 1223.29 2101.04 1225.55 2104.24 1228.32 2107.21 1231.47 2112.06 1238.97 2115.52 1247.9 2117.66 1258.36 2118.34 1270.2 2117.66 1282.09 2115.52 1292.42 2112.06 1301.29 2107.22 1308.67 2104.37 1311.71 2101.2 1314.41 2097.73 1316.7 2093.9 1318.63 2089.81 1320.08 2085.38 1321.12 2080.66 1321.79 2075.6 1321.98 2070.59 1321.74 2065.95 1321.15 2061.52 1320.06 2057.37 1318.63 2053.47 1316.72 2049.84 1314.37 2046.41 1311.61 2043.26 1308.42 2040.42 1304.87 2037.99 1301 2035.93 1296.83 2034.22 1292.26 2032.87 1287.45 2031.89 1282.27 2031.34 1276.74 2031.15 1270.9 2031.33 1264.81 2031.87 1259.12 2032.85 1253.72 2034.12 1248.68 2035.81 1244 2037.87 1239.69 2040.28 1235.7 2043.04 1232.08 2046.18 1228.81 2049.54 1225.98 2053.12 1223.57 2057.05 1221.63 2061.26 1220.06 2065.65 1218.97 2070.41 1218.35 2075.47 1218.1ZM2075.58 1215.1 2070.26 1215.35 2065.27 1215.99 2060.54 1217.15 2056 1218.82 2051.8 1220.88 2047.88 1223.48 2044.25 1226.52 2040.88 1230 2037.9 1233.88 2035.3 1238.14 2033.11 1242.7 2031.3 1247.65 2029.94 1252.98 2028.92 1258.58 2028.34 1264.52 2028.15 1270.81 2028.34 1276.84 2028.91 1282.56 2029.92 1288 2031.33 1293.07 2033.12 1297.88 2035.3 1302.33 2037.88 1306.46 2040.91 1310.29 2044.27 1313.72 2047.96 1316.71 2051.83 1319.23 2056.05 1321.32 2060.53 1322.89 2065.23 1324.06 2070.21 1324.71 2075.45 1324.98 2080.77 1324.79 2085.8 1324.09 2090.49 1323 2094.9 1321.45 2099.07 1319.38 2102.85 1316.92 2106.31 1314 2109.49 1310.63C2109.55 1310.57 2109.6 1310.5 2109.65 1310.42L2114.65 1302.8C2114.71 1302.71 2114.76 1302.62 2114.8 1302.52L2118.36 1293.4C2118.39 1293.32 2118.41 1293.24 2118.43 1293.16L2120.62 1282.59C2120.63 1282.52 2120.64 1282.45 2120.65 1282.38L2121.33 1270.38 2120.65 1258.08C2120.64 1258.01 2120.63 1257.94 2120.62 1257.86L2118.43 1247.18C2118.41 1247.09 2118.39 1247.01 2118.36 1246.94L2114.8 1237.75C2114.76 1237.65 2114.71 1237.56 2114.66 1237.48L2109.66 1229.73C2109.61 1229.65 2109.55 1229.58 2109.49 1229.51L2106.43 1226.26 2103.01 1223.28 2099.22 1220.79 2095.05 1218.75 2090.67 1217.13 2085.93 1216.02 2080.92 1215.3ZM2081.34 1212.33 2086.61 1213.09 2091.7 1214.32 2096.36 1216.05 2100.86 1218.28 2104.97 1221.02 2108.61 1224.2 2111.67 1227.45C2111.86 1227.65 2112.03 1227.87 2112.18 1228.1L2117.18 1235.85C2117.35 1236.11 2117.48 1236.38 2117.59 1236.66L2121.16 1245.85C2121.25 1246.09 2121.32 1246.33 2121.37 1246.57L2123.56 1257.26C2123.6 1257.48 2123.63 1257.69 2123.64 1257.91L2124.33 1270.55 2123.64 1282.55C2123.63 1282.77 2123.6 1282.99 2123.56 1283.2L2121.37 1293.76C2121.32 1294.01 2121.24 1294.25 2121.15 1294.49L2117.59 1303.61C2117.48 1303.91 2117.33 1304.18 2117.16 1304.44L2112.16 1312.07C2112.02 1312.29 2111.85 1312.5 2111.67 1312.69L2108.25 1316.28 2104.49 1319.43 2100.41 1322.06 2095.9 1324.28 2091.17 1325.92 2086.21 1327.06 2080.87 1327.79 2075.3 1327.97 2069.82 1327.69 2064.51 1326.97 2059.55 1325.73 2054.72 1324.01 2050.2 1321.75 2046.07 1319.04 2042.12 1315.82 2038.57 1312.16 2035.33 1308.05 2032.61 1303.65 2030.31 1298.93 2028.44 1293.87 2026.98 1288.56 2025.92 1282.86 2025.34 1276.93 2025.15 1270.72 2025.36 1264.23 2025.97 1258.05 2027.04 1252.25 2028.48 1246.63 2030.4 1241.41 2032.74 1236.58 2035.52 1232.05 2038.72 1227.92 2042.32 1224.22 2046.22 1220.98 2050.47 1218.19 2054.96 1216.01 2059.82 1214.23 2064.89 1213.01 2070.12 1212.36 2075.69 1212.11ZM1742.9 1202.93C1742.35 1201.54 1742.53 1199.98 1743.37 1198.75 1744.21 1197.52 1745.6 1196.79 1747.09 1196.79L1771.52 1196.79C1773.43 1196.79 1775.14 1198 1775.77 1199.8L1812.96 1305.61 1813.44 1307.11 1814.11 1309.52 1814.89 1312.64 1815 1313.04 1808.79 1313.04 1808.4 1314.67 1808.96 1312.35 1809.74 1309.44 1810.7 1306.11 1849.86 1199.73C1850.52 1197.97 1852.2 1196.79 1854.09 1196.79L1876.9 1196.79C1878.39 1196.79 1879.78 1197.53 1880.62 1198.76 1881.46 1199.99 1881.63 1201.56 1881.08 1202.95L1817.83 1362.45 1813.32 1372.61 1808.26 1381.68 1802.66 1389.43 1796.6 1395.89C1796.43 1396.06 1796.25 1396.23 1796.05 1396.38L1789.87 1401.06C1789.65 1401.23 1789.42 1401.37 1789.18 1401.49L1782.61 1404.81C1782.36 1404.93 1782.1 1405.04 1781.82 1405.12L1774.82 1407.12C1774.55 1407.19 1774.28 1407.24 1774 1407.27L1766.56 1407.96C1766.34 1407.98 1766.12 1407.98 1765.9 1407.97L1757.96 1407.53C1757.74 1407.52 1757.53 1407.49 1757.31 1407.45L1750.87 1406.14C1748.78 1405.71 1747.27 1403.87 1747.27 1401.73L1747.27 1381.98C1747.27 1380.58 1747.92 1379.26 1749.03 1378.41 1750.14 1377.56 1751.58 1377.27 1752.93 1377.63L1759.4 1379.35 1764.83 1379.9 1768.11 1379.64 1771.11 1378.89 1773.92 1377.64 1776.55 1375.93 1779.02 1373.6 1781.57 1370.42 1783.77 1366.84 1785.7 1362.64 1795.92 1338.41ZM1799.15 1338.46 1788.41 1363.91 1786.31 1368.43 1783.92 1372.29 1781.23 1375.64 1778.41 1378.29 1775.37 1380.28 1772.09 1381.74 1768.6 1382.62 1764.79 1382.91 1758.86 1382.31 1752.16 1380.53C1751.71 1380.41 1751.23 1380.5 1750.86 1380.79 1750.49 1381.07 1750.27 1381.51 1750.27 1381.98L1750.27 1401.73C1750.27 1402.44 1750.78 1403.05 1751.47 1403.2L1757.91 1404.51C1757.98 1404.52 1758.06 1404.53 1758.13 1404.54L1766.07 1404.97C1766.14 1404.98 1766.21 1404.98 1766.29 1404.97L1773.72 1404.28C1773.82 1404.27 1773.91 1404.26 1774 1404.23L1781 1402.23C1781.09 1402.21 1781.18 1402.17 1781.26 1402.13L1787.82 1398.82C1787.91 1398.78 1787.98 1398.73 1788.05 1398.67L1794.24 1393.99C1794.31 1393.94 1794.37 1393.88 1794.42 1393.82L1800.24 1387.67 1805.64 1380.21 1810.58 1371.4 1815.04 1361.34 1878.29 1201.84C1878.48 1201.38 1878.42 1200.86 1878.14 1200.45 1877.86 1200.04 1877.4 1199.79 1876.9 1199.79L1854.09 1199.79C1853.46 1199.79 1852.9 1200.18 1852.68 1200.77L1813.58 1306.94 1812.64 1310.22 1811.88 1313.06 1811.32 1315.38 1811.16 1316.04 1812.68 1316.04 1811.98 1313.36 1811.22 1310.33 1810.58 1308.02 1810.13 1306.6 1772.94 1200.79C1772.73 1200.19 1772.16 1199.79 1771.52 1199.79L1747.09 1199.79C1746.59 1199.79 1746.13 1200.03 1745.85 1200.44 1745.57 1200.85 1745.51 1201.37 1745.69 1201.84ZM1749.28 1202.79 1770.46 1202.79 1807.3 1307.6 1807.72 1308.93 1808.33 1311.13 1809.07 1314.09 1810.07 1317.92C1810.25 1318.58 1810.84 1319.04 1811.52 1319.04L1812.34 1319.04C1813.03 1319.04 1813.63 1318.57 1813.79 1317.89L1814.23 1316.08 1814.79 1313.77 1815.54 1310.99 1816.47 1307.77 1855.13 1202.79 1874.69 1202.79 1812.25 1360.24 1807.84 1370.18 1803.03 1378.74 1797.81 1385.91 1792.33 1391.67 1786.35 1396.2 1780.04 1399.39 1773.31 1401.31 1766.12 1401.97 1758.4 1401.55 1753.27 1400.5 1753.27 1383.93 1758.2 1385.24C1758.28 1385.26 1758.36 1385.27 1758.44 1385.28L1764.62 1385.91C1764.71 1385.92 1764.8 1385.92 1764.89 1385.91L1768.95 1385.6C1769.04 1385.59 1769.12 1385.58 1769.2 1385.56L1772.95 1384.62C1773.04 1384.6 1773.12 1384.57 1773.2 1384.53L1776.7 1382.97C1776.77 1382.94 1776.84 1382.9 1776.91 1382.86L1780.16 1380.73C1780.23 1380.69 1780.3 1380.63 1780.36 1380.57L1783.36 1377.76C1783.41 1377.71 1783.46 1377.66 1783.51 1377.6L1786.26 1374.16 1788.86 1370.02 1791.13 1365.17 1802.16 1339.06C1802.31 1338.7 1802.31 1338.29 1802.17 1337.93ZM1804.96 1336.84C1805.39 1337.93 1805.38 1339.15 1804.92 1340.23L1793.85 1366.44 1791.4 1371.61 1788.6 1376.04 1785.85 1379.48C1785.72 1379.64 1785.57 1379.8 1785.41 1379.95L1782.41 1382.76C1782.22 1382.94 1782.02 1383.1 1781.8 1383.24L1778.55 1385.37C1778.35 1385.5 1778.14 1385.61 1777.92 1385.71L1774.42 1387.27C1774.18 1387.38 1773.93 1387.47 1773.68 1387.53L1769.93 1388.47C1769.68 1388.53 1769.43 1388.57 1769.18 1388.59L1765.12 1388.9C1764.85 1388.92 1764.59 1388.92 1764.32 1388.89L1758.13 1388.27C1757.9 1388.24 1757.66 1388.2 1757.43 1388.14L1756.27 1387.83 1756.27 1398.05 1758.79 1398.56 1766.07 1398.97 1772.75 1398.35 1778.94 1396.58 1784.76 1393.64 1790.32 1389.43 1795.38 1384.14 1800.41 1377.28 1805.1 1368.96 1809.47 1359.13 1870.27 1205.79 1857.22 1205.79 1819.35 1308.6 1818.43 1311.76 1817.71 1314.48 1817.15 1316.78 1816.71 1318.6C1816.22 1320.62 1814.41 1322.04 1812.34 1322.04L1811.52 1322.04C1809.48 1322.04 1807.69 1320.66 1807.17 1318.68L1806.16 1314.82 1805.44 1311.93 1804.86 1309.84 1804.47 1308.59 1768.34 1205.79 1753.68 1205.79ZM2234.64 1194.37 2239.16 1194.48 2243.06 1194.88 2246.46 1195.49 2249.54 1196.45C2251.39 1197.05 2252.65 1198.78 2252.65 1200.73L2252.65 1223.54C2252.65 1225.17 2251.77 1226.67 2250.35 1227.46 2248.94 1228.26 2247.2 1228.23 2245.81 1227.39L2243.01 1225.68 2239.95 1224.58 2236.11 1223.83 2231.3 1223.6 2228.33 1223.78 2225.61 1224.34 2223.01 1225.25 2220.53 1226.47 2218.17 1228.06 2215.86 1230.05 2213.66 1232.4 2211.71 1234.92 2207.94 1241.55 2205.2 1249.26 2203.51 1258.59 2202.95 1268.92 2202.96 1338.79C2202.96 1341.28 2200.95 1343.29 2198.46 1343.29L2176.46 1343.29C2173.98 1343.29 2171.96 1341.28 2171.96 1338.79L2171.96 1201.29C2171.96 1198.8 2173.98 1196.79 2176.46 1196.79L2198.46 1196.79C2200.95 1196.79 2202.96 1198.8 2202.96 1201.29L2202.96 1225.1 2195.95 1225.1 2197.52 1221.09 2201 1214.58 2205.28 1208.74C2205.42 1208.55 2205.57 1208.37 2205.74 1208.21L2210.24 1203.77C2210.41 1203.61 2210.59 1203.45 2210.79 1203.31L2215.79 1199.75C2215.99 1199.61 2216.2 1199.48 2216.42 1199.37L2221.67 1196.81C2221.93 1196.68 2222.19 1196.59 2222.46 1196.51L2227.96 1195.01C2228.23 1194.94 2228.5 1194.89 2228.77 1194.87ZM2229.02 1197.86C2228.93 1197.87 2228.84 1197.88 2228.75 1197.91L2223.25 1199.41C2223.16 1199.43 2223.08 1199.46 2222.99 1199.5L2217.74 1202.07C2217.67 1202.1 2217.6 1202.15 2217.53 1202.19L2212.53 1205.76C2212.46 1205.8 2212.4 1205.85 2212.35 1205.91L2207.85 1210.35C2207.79 1210.4 2207.74 1210.46 2207.69 1210.52L2203.64 1216.01 2200.31 1222.18 2198 1228.1 2199.96 1228.1 2199.96 1201.29C2199.96 1200.46 2199.29 1199.79 2198.46 1199.79L2176.46 1199.79C2175.63 1199.79 2174.96 1200.46 2174.96 1201.29L2174.96 1338.79C2174.96 1339.62 2175.63 1340.29 2176.46 1340.29L2198.46 1340.29C2199.29 1340.29 2199.96 1339.62 2199.96 1338.79L2199.96 1268.75 2200.56 1258.06 2202.29 1248.49 2205.21 1240.29 2209.21 1233.25 2211.48 1230.32 2213.93 1227.75 2216.53 1225.55 2219.23 1223.77 2222.06 1222.4 2225.05 1221.39 2228.17 1220.79 2231.45 1220.6 2236.47 1220.85 2240.75 1221.68 2244.31 1222.96 2247.37 1224.82C2247.83 1225.1 2248.41 1225.11 2248.88 1224.85 2249.36 1224.58 2249.65 1224.08 2249.65 1223.54L2249.65 1200.73C2249.65 1200.08 2249.23 1199.5 2248.61 1199.3L2245.92 1198.44 2242.74 1197.86 2239.07 1197.48 2234.9 1197.36ZM2235.15 1200.35 2238.98 1200.48 2242.43 1200.84 2245.38 1201.39 2246.65 1201.82 2246.65 1220.87 2245.74 1220.32C2245.65 1220.27 2245.56 1220.23 2245.47 1220.19L2241.66 1218.82C2241.59 1218.79 2241.51 1218.77 2241.44 1218.75L2236.94 1217.88C2236.86 1217.87 2236.79 1217.86 2236.72 1217.85L2231.6 1217.6 2228 1217.79 2224.5 1218.44 2221.11 1219.55 2217.94 1221.06 2214.89 1223.03 2212 1225.45 2209.31 1228.25 2206.78 1231.49C2206.73 1231.55 2206.69 1231.61 2206.66 1231.67L2202.53 1238.92C2202.49 1239 2202.45 1239.08 2202.42 1239.16L2199.42 1247.6C2199.4 1247.68 2199.37 1247.76 2199.36 1247.84L2197.61 1257.52 2196.96 1268.58 2196.96 1337.29 2177.96 1337.29 2177.96 1202.79 2196.96 1202.79 2196.96 1229.6C2196.96 1230.43 2197.63 1231.1 2198.46 1231.1L2199.02 1231.1C2199.64 1231.1 2200.2 1230.72 2200.42 1230.15L2203.11 1223.27 2206.28 1217.44 2210.03 1212.4 2214.37 1208.13 2219.17 1204.71 2224.18 1202.26 2229.41 1200.84ZM2229.94 1203.8 2225.24 1205.08 2220.71 1207.3 2216.3 1210.43 2212.31 1214.37 2208.92 1218.87 2205.9 1224.37 2203.21 1231.24C2202.54 1232.97 2200.88 1234.1 2199.02 1234.1L2198.46 1234.1C2195.98 1234.1 2193.96 1232.09 2193.96 1229.6L2193.96 1205.79 2180.96 1205.79 2180.96 1334.29 2193.96 1334.29 2193.97 1268.41 2194.66 1256.99 2196.41 1247.3C2196.45 1247.06 2196.51 1246.83 2196.6 1246.59L2199.6 1238.16C2199.68 1237.91 2199.79 1237.67 2199.93 1237.44L2204.05 1230.19C2204.16 1230 2204.28 1229.82 2204.41 1229.65L2207.14 1226.18 2210.06 1223.16 2213.25 1220.52 2216.64 1218.36 2220.16 1216.71 2223.94 1215.49 2227.84 1214.8 2231.74 1214.61 2236.87 1214.86C2237.08 1214.87 2237.3 1214.89 2237.51 1214.94L2242.01 1215.81C2242.23 1215.85 2242.46 1215.92 2242.68 1215.99L2246.49 1217.37C2246.77 1217.47 2247.04 1217.6 2247.3 1217.76L2243.65 1215.54 2243.65 1204 2244.84 1204.34 2242.12 1203.83 2238.88 1203.48 2235.41 1203.34ZM3230.46 1193.55 3237.91 1194.05C3238.15 1194.07 3238.39 1194.1 3238.62 1194.16L3244.99 1195.66C3245.23 1195.72 3245.46 1195.79 3245.69 1195.88L3251.56 1198.32C3251.8 1198.42 3252.02 1198.54 3252.24 1198.67L3257.68 1202.11C3257.88 1202.24 3258.07 1202.38 3258.25 1202.54L3263.06 1206.79C3263.23 1206.94 3263.38 1207.09 3263.52 1207.26L3267.59 1212.07C3267.75 1212.27 3267.9 1212.48 3268.03 1212.7L3271.22 1218.14C3271.35 1218.36 3271.46 1218.59 3271.55 1218.83L3270.6 1216.31 3269.87 1217.52 3274.75 1211.31 3280.11 1205.96C3280.27 1205.8 3280.44 1205.66 3280.63 1205.53L3286.13 1201.53C3286.3 1201.4 3286.49 1201.28 3286.68 1201.18L3292.62 1198.06C3292.82 1197.95 3293.03 1197.86 3293.25 1197.78L3299.63 1195.6 3307.08 1194.06 3315.07 1193.55 3321.04 1193.79 3326.51 1194.45 3331.8 1195.66 3336.65 1197.28 3341.26 1199.5 3345.4 1202.13 3349.25 1205.36 3352.67 1208.95C3352.82 1209.11 3352.96 1209.28 3353.09 1209.46L3355.71 1213.21 3358.26 1217.71 3360.42 1222.8 3362.18 1228.15 3363.48 1234.09 3364.47 1240.21 3365.01 1246.94 3365.21 1253.91 3365.21 1338.79C3365.21 1341.28 3363.2 1343.29 3360.71 1343.29L3338.71 1343.29C3336.23 1343.29 3334.21 1341.28 3334.21 1338.79L3334.21 1259.79 3334.09 1254.39 3333.78 1249.44 3333.24 1245.01 3332.53 1240.94 3331.6 1237.33 3330.46 1234.15 3329.19 1231.42 3328.02 1229.5 3324.66 1225.88 3320.39 1223.32 3314.82 1221.67 3307.6 1221.09 3304.7 1221.28 3301.98 1221.84 3299.31 1222.71 3296.74 1223.9 3294.32 1225.43 3291.96 1227.37 3289.61 1229.7 3287.42 1232.36 3283.65 1238.32 3280.89 1244.98 3279.17 1252.34 3278.57 1260.68 3278.59 1338.79C3278.59 1341.28 3276.57 1343.29 3274.09 1343.29L3252.09 1343.29C3249.6 1343.29 3247.59 1341.28 3247.59 1338.79L3247.59 1257.1 3247.09 1247.84 3245.78 1240.55 3243.62 1234.34 3240.71 1229.52 3237.07 1225.89 3232.65 1223.32 3227.23 1221.67 3220.39 1221.09 3217.45 1221.28 3214.58 1221.79 3211.92 1222.61 3209.36 1223.74 3206.89 1225.19 3204.65 1226.98 3202.44 1229.11 3200.54 1231.39 3196.81 1237.33 3194.16 1244.03 3192.49 1251.97 3191.95 1260.65 3191.96 1338.79C3191.96 1341.28 3189.95 1343.29 3187.46 1343.29L3165.46 1343.29C3162.98 1343.29 3160.96 1341.28 3160.96 1338.79L3160.96 1201.29C3160.96 1198.8 3162.98 1196.79 3165.46 1196.79L3187.46 1196.79C3189.95 1196.79 3191.96 1198.8 3191.96 1201.29L3191.96 1218.54 3185.6 1218.54 3188.14 1214.69 3192.7 1209.21 3197.87 1204.46 3203.49 1200.57 3209.59 1197.51C3209.78 1197.41 3209.99 1197.33 3210.19 1197.26L3216.13 1195.32 3223.07 1193.99ZM3223.62 1196.94 3217.06 1198.18 3211.12 1200.11C3211.05 1200.14 3210.99 1200.16 3210.92 1200.2L3205.18 1203.05 3199.89 1206.68 3195 1211.14 3190.65 1216.34 3187.22 1221.54 3188.96 1221.54 3188.96 1201.29C3188.96 1200.46 3188.29 1199.79 3187.46 1199.79L3165.46 1199.79C3164.63 1199.79 3163.96 1200.46 3163.96 1201.29L3163.96 1338.79C3163.96 1339.62 3164.63 1340.29 3165.46 1340.29L3187.46 1340.29C3188.29 1340.29 3188.96 1339.62 3188.96 1338.79L3188.96 1260.45 3189.55 1251.35 3191.28 1243.16 3194.12 1235.97 3198.11 1229.62 3200.37 1226.94 3202.82 1224.6 3205.4 1222.59 3208.18 1220.98 3211.07 1219.73 3214.08 1218.83 3217.29 1218.29 3220.65 1218.1 3227.8 1218.71 3233.86 1220.55 3238.91 1223.49 3243.08 1227.66 3246.35 1233.06 3248.69 1239.79 3250.09 1247.68 3250.59 1257.1 3250.59 1338.79C3250.59 1339.62 3251.26 1340.29 3252.09 1340.29L3274.09 1340.29C3274.91 1340.29 3275.59 1339.62 3275.59 1338.79L3275.58 1260.46 3276.2 1251.89 3278.02 1244.06 3280.98 1236.92 3285.11 1230.44 3287.51 1227.55 3290.09 1225.02 3292.75 1222.88 3295.51 1221.16 3298.41 1219.85 3301.43 1218.89 3304.54 1218.29 3307.84 1218.1 3315.37 1218.71 3321.6 1220.55 3326.57 1223.53 3330.44 1227.69 3331.91 1230.17 3333.3 1233.16 3334.51 1236.6 3335.48 1240.42 3336.22 1244.66 3336.78 1249.26 3337.09 1254.32 3337.21 1259.79 3337.21 1338.79C3337.21 1339.62 3337.88 1340.29 3338.71 1340.29L3360.71 1340.29C3361.54 1340.29 3362.21 1339.62 3362.21 1338.79L3362.21 1254 3362.02 1247.17 3361.5 1240.68 3360.55 1234.72 3359.33 1229.08 3357.66 1223.96 3355.64 1219.18 3353.25 1214.93 3350.63 1211.18C3350.59 1211.12 3350.54 1211.06 3350.49 1211.01L3347.31 1207.65 3343.77 1204.65 3339.94 1202.19 3335.69 1200.12 3331.12 1198.58 3326.14 1197.43 3320.9 1196.79 3315.25 1196.54 3307.67 1197.01 3300.6 1198.43 3294.22 1200.62C3294.15 1200.65 3294.08 1200.68 3294.01 1200.71L3288.08 1203.84C3288.01 1203.87 3287.95 1203.91 3287.89 1203.95L3282.39 1207.95C3282.33 1208 3282.27 1208.04 3282.22 1208.1L3277.1 1213.17 3272.43 1219.07 3269.96 1223.13 3268.74 1219.89C3268.71 1219.81 3268.67 1219.73 3268.63 1219.66L3265.44 1214.22C3265.4 1214.15 3265.35 1214.07 3265.29 1214.01L3261.23 1209.2C3261.19 1209.14 3261.13 1209.09 3261.08 1209.04L3256.27 1204.79C3256.21 1204.74 3256.14 1204.69 3256.08 1204.65L3250.64 1201.21C3250.57 1201.16 3250.49 1201.12 3250.41 1201.09L3244.54 1198.65C3244.46 1198.62 3244.38 1198.6 3244.3 1198.58L3237.93 1197.08C3237.85 1197.06 3237.77 1197.05 3237.7 1197.04L3230.63 1196.54ZM3230.79 1199.54 3237.36 1200.03 3243.5 1201.47 3249.14 1203.81 3254.37 1207.12 3259.01 1211.22 3262.92 1215.85 3265.98 1221.06 3268.25 1227.07C3268.45 1227.61 3268.94 1227.98 3269.51 1228.03 3270.08 1228.09 3270.63 1227.81 3270.93 1227.32L3274.99 1220.63 3279.45 1215.03 3284.25 1210.31 3289.57 1206.44 3295.31 1203.42 3301.57 1201.27 3308.26 1199.95 3315.42 1199.54 3320.77 1199.79 3325.78 1200.4 3330.43 1201.5 3334.73 1202.96 3338.61 1204.89 3342.15 1207.18 3345.36 1209.93 3348.23 1212.99 3350.79 1216.65 3353.03 1220.65 3354.89 1225.12 3356.47 1230 3357.62 1235.36 3358.54 1241.15 3359.03 1247.41 3359.21 1254.08 3359.21 1337.29 3340.21 1337.29 3340.21 1259.79 3340.09 1254.26 3339.77 1249.07 3339.2 1244.3 3338.44 1239.91 3337.42 1235.86 3336.13 1232.17 3334.64 1228.91 3332.94 1226.03C3332.89 1225.93 3332.82 1225.85 3332.75 1225.77L3328.62 1221.33C3328.53 1221.23 3328.42 1221.14 3328.3 1221.07L3322.98 1217.88C3322.87 1217.81 3322.76 1217.76 3322.64 1217.73L3316.07 1215.79C3315.97 1215.76 3315.87 1215.74 3315.77 1215.73L3308.08 1215.11 3304.38 1215.29 3300.87 1215.94 3297.51 1216.98 3294.28 1218.42 3291.17 1220.33 3288.21 1222.68 3285.41 1225.4 3282.81 1228.52 3278.38 1235.42C3278.34 1235.49 3278.3 1235.57 3278.26 1235.65L3275.2 1243.03C3275.17 1243.1 3275.14 1243.18 3275.13 1243.26L3273.25 1251.32C3273.23 1251.4 3273.22 1251.48 3273.22 1251.56L3272.59 1260.24 3272.59 1337.29 3253.59 1337.29 3253.59 1257.1 3253.08 1247.52 3251.63 1239.16C3251.61 1239.08 3251.59 1239 3251.57 1238.92L3249.13 1231.92C3249.09 1231.82 3249.05 1231.73 3249 1231.64L3245.56 1225.95C3245.49 1225.85 3245.42 1225.75 3245.33 1225.67L3240.9 1221.23C3240.81 1221.14 3240.7 1221.06 3240.59 1220.99L3235.22 1217.87C3235.11 1217.81 3235.01 1217.76 3234.9 1217.73L3228.52 1215.79C3228.42 1215.76 3228.32 1215.74 3228.21 1215.73L3220.9 1215.11 3217.13 1215.29 3213.59 1215.87 3210.23 1216.85 3207 1218.22 3203.9 1219.99 3200.98 1222.23 3198.3 1224.77 3195.75 1227.76C3195.71 1227.81 3195.67 1227.87 3195.63 1227.93L3191.5 1234.49C3191.45 1234.57 3191.41 1234.65 3191.38 1234.74L3188.44 1242.18C3188.41 1242.25 3188.39 1242.34 3188.37 1242.42L3186.62 1250.73 3185.96 1260.25 3185.96 1337.29 3166.96 1337.29 3166.96 1202.79 3185.96 1202.79 3185.96 1223.04C3185.96 1223.87 3186.63 1224.54 3187.46 1224.54L3188.02 1224.54C3188.53 1224.54 3189 1224.29 3189.28 1223.87L3193.15 1217.99 3197.3 1213.07 3201.91 1208.9 3206.87 1205.53 3212.15 1202.93 3217.99 1201.03 3224.17 1199.89ZM3224.72 1202.84 3218.92 1203.88 3213.29 1205.72 3208.56 1208.01 3203.92 1211.12 3199.6 1215 3195.66 1219.64 3191.78 1225.52C3190.95 1226.78 3189.54 1227.54 3188.02 1227.54L3187.46 1227.54C3184.98 1227.54 3182.96 1225.53 3182.96 1223.04L3182.96 1205.79 3169.96 1205.79 3169.96 1334.29 3182.96 1334.29 3182.97 1260.05 3183.68 1250.11 3185.43 1241.8C3185.48 1241.55 3185.56 1241.31 3185.65 1241.07L3188.59 1233.64C3188.69 1233.38 3188.82 1233.13 3188.96 1232.9L3193.09 1226.33C3193.2 1226.15 3193.33 1225.98 3193.47 1225.82L3196.23 1222.59 3199.15 1219.85 3202.41 1217.39 3205.81 1215.47 3209.38 1213.97 3213.1 1212.91 3216.97 1212.3 3221.16 1212.12 3228.47 1212.74C3228.78 1212.77 3229.09 1212.83 3229.4 1212.92L3235.77 1214.86C3236.1 1214.96 3236.42 1215.1 3236.72 1215.27L3242.1 1218.4C3242.43 1218.59 3242.74 1218.83 3243.02 1219.11L3247.46 1223.55C3247.71 1223.8 3247.94 1224.09 3248.12 1224.4L3251.56 1230.09C3251.72 1230.36 3251.86 1230.64 3251.96 1230.94L3254.4 1237.94C3254.48 1238.16 3254.54 1238.4 3254.58 1238.64L3256.08 1247.37 3256.59 1257.1 3256.59 1334.29 3269.59 1334.29 3269.6 1260.03 3270.22 1251.34C3270.24 1251.11 3270.27 1250.87 3270.33 1250.65L3272.2 1242.58C3272.26 1242.34 3272.34 1242.11 3272.43 1241.88L3275.49 1234.5C3275.59 1234.26 3275.72 1234.03 3275.86 1233.8L3280.5 1226.6 3283.32 1223.26 3286.34 1220.34 3289.6 1217.77 3293.06 1215.68 3296.61 1214.12 3300.31 1212.99 3304.22 1212.3 3308.33 1212.12 3316.01 1212.74C3316.32 1212.77 3316.63 1212.82 3316.92 1212.91L3323.49 1214.85C3323.85 1214.96 3324.2 1215.11 3324.53 1215.31L3329.84 1218.49C3330.2 1218.71 3330.53 1218.98 3330.82 1219.29L3334.94 1223.73C3335.16 1223.96 3335.36 1224.22 3335.52 1224.5L3337.36 1227.66 3338.96 1231.17 3340.32 1235.12 3341.39 1239.39 3342.18 1243.94 3342.77 1248.89 3343.09 1254.19 3343.21 1259.79 3343.21 1334.29 3356.21 1334.29 3356.21 1254.16 3356.04 1247.64 3355.58 1241.62 3354.69 1235.99 3353.62 1230.93 3352.12 1226.28 3350.41 1222.12 3348.34 1218.37 3345.9 1214.89 3343.42 1212.22 3340.52 1209.7 3337.29 1207.58 3333.77 1205.8 3329.75 1204.42 3325.42 1203.38 3320.63 1202.79 3315.6 1202.53 3308.84 1202.89 3302.55 1204.11 3296.5 1206.18 3291.16 1209 3286.19 1212.6 3281.8 1216.9 3277.56 1222.19 3273.49 1228.88C3272.6 1230.35 3270.95 1231.18 3269.23 1231.02 3267.52 1230.86 3266.05 1229.74 3265.44 1228.13L3263.26 1222.36 3260.46 1217.59 3256.86 1213.32 3252.56 1209.53 3247.76 1206.49 3242.57 1204.34 3236.9 1203 3230.96 1202.53ZM3075.27 1193.54 3081.42 1193.73 3087.28 1194.38 3092.76 1195.44 3097.85 1196.91 3102.68 1198.88 3107.17 1201.37 3111.15 1204.2 3114.83 1207.55 3118.07 1211.44 3120.85 1215.63 3123.19 1220.3 3125.06 1225.37 3126.55 1230.72 3127.58 1236.59 3128.19 1242.73 3128.4 1249.22 3128.4 1338.79C3128.4 1341.28 3126.38 1343.29 3123.9 1343.29L3101.9 1343.29C3099.41 1343.29 3097.4 1341.28 3097.4 1338.79L3097.4 1321.79 3103.75 1321.79 3101.27 1325.53 3096.8 1330.97C3096.67 1331.14 3096.52 1331.29 3096.36 1331.44L3091.67 1335.69 3086.11 1339.51C3085.94 1339.63 3085.75 1339.74 3085.56 1339.83L3080.06 1342.52 3073.54 1344.69 3066.6 1346.03 3059.27 1346.47 3049.02 1345.78C3048.78 1345.76 3048.55 1345.73 3048.32 1345.67L3039.69 1343.67C3039.4 1343.6 3039.1 1343.5 3038.82 1343.37L3031.39 1339.94C3031.1 1339.81 3030.83 1339.65 3030.58 1339.46L3024.21 1334.71C3023.95 1334.51 3023.7 1334.29 3023.49 1334.04L3018.43 1328.16C3018.21 1327.92 3018.03 1327.65 3017.87 1327.36L3014.25 1320.61C3014.09 1320.32 3013.97 1320.02 3013.88 1319.71L3011.7 1312.02C3011.62 1311.75 3011.57 1311.47 3011.54 1311.18L3010.79 1302.62C3010.77 1302.38 3010.77 1302.13 3010.79 1301.89L3011.47 1292.76C3011.49 1292.49 3011.54 1292.23 3011.61 1291.96L3013.73 1283.84C3013.81 1283.54 3013.92 1283.24 3014.06 1282.96L3017.62 1275.84C3017.78 1275.54 3017.96 1275.25 3018.18 1274.99L3023.18 1268.93C3023.37 1268.69 3023.59 1268.47 3023.83 1268.28L3030.2 1263.16C3030.43 1262.97 3030.68 1262.81 3030.93 1262.68L3038.68 1258.62C3038.89 1258.51 3039.11 1258.41 3039.33 1258.34L3048.58 1255.21 3059.79 1253 3097.19 1247.72 3096.97 1243.65 3095.79 1237.49 3093.85 1232.25 3091.28 1228.24 3088.07 1225.18 3084.16 1222.97 3079.34 1221.61 3073.14 1221.09 3067.58 1221.35 3062 1222.12 3056.58 1223.37 3051.31 1225.13 3046.14 1227.31 3041.18 1230.05 3036.24 1233.3 3031.47 1237.03C3030.12 1238.08 3028.28 1238.27 3026.73 1237.52 3025.19 1236.76 3024.21 1235.2 3024.21 1233.48L3024.21 1210.91C3024.21 1209.31 3025.07 1207.82 3026.46 1207.02L3031.65 1204.02 3037.22 1201.26 3043.13 1198.91 3049.17 1197 3055.4 1195.48 3061.86 1194.41 3068.46 1193.75ZM3068.75 1196.73 3062.34 1197.37 3056.11 1198.39 3050.07 1199.86 3044.22 1201.71 3038.55 1203.95 3033.15 1206.62 3027.96 1209.62C3027.5 1209.88 3027.21 1210.38 3027.21 1210.91L3027.21 1233.48C3027.21 1234.05 3027.54 1234.57 3028.05 1234.82 3028.57 1235.08 3029.18 1235.01 3029.63 1234.66L3034.6 1230.79 3039.74 1227.42 3044.98 1224.55 3050.37 1222.28 3055.92 1220.44 3061.6 1219.15 3067.46 1218.35 3073.4 1218.1 3079.88 1218.65 3085.32 1220.18 3089.87 1222.75 3093.61 1226.31 3096.55 1230.9 3098.7 1236.69 3099.96 1243.49 3100.33 1250.31 3060.36 1255.94 3049.54 1258.06 3040.29 1261.18C3040.22 1261.21 3040.15 1261.24 3040.08 1261.27L3032.33 1265.34C3032.24 1265.38 3032.16 1265.43 3032.08 1265.5L3025.71 1270.62C3025.63 1270.68 3025.56 1270.76 3025.49 1270.84L3020.49 1276.9C3020.42 1276.99 3020.36 1277.08 3020.31 1277.18L3016.74 1284.31C3016.7 1284.4 3016.66 1284.5 3016.64 1284.6L3014.51 1292.72C3014.49 1292.81 3014.47 1292.9 3014.47 1292.99L3013.78 1302.11C3013.77 1302.2 3013.77 1302.28 3013.78 1302.36L3014.53 1310.92C3014.54 1311.02 3014.56 1311.11 3014.58 1311.2L3016.77 1318.89C3016.8 1318.99 3016.84 1319.09 3016.89 1319.19L3020.51 1325.94C3020.57 1326.03 3020.63 1326.12 3020.7 1326.21L3025.76 1332.08C3025.83 1332.16 3025.91 1332.24 3026 1332.31L3032.38 1337.06C3032.46 1337.12 3032.55 1337.17 3032.64 1337.21L3040.08 1340.65C3040.18 1340.69 3040.27 1340.73 3040.37 1340.75L3049 1342.75C3049.07 1342.77 3049.15 1342.78 3049.23 1342.79L3059.11 1343.47 3066.05 1343.08 3072.61 1341.84 3078.74 1339.82 3084.24 1337.14C3084.31 1337.11 3084.37 1337.07 3084.43 1337.03L3089.66 1333.46 3094.34 1329.21C3094.4 1329.17 3094.45 1329.11 3094.49 1329.06L3098.77 1323.87 3102.14 1318.79 3100.4 1318.79 3100.4 1338.79C3100.4 1339.62 3101.07 1340.29 3101.9 1340.29L3123.9 1340.29C3124.73 1340.29 3125.4 1339.62 3125.4 1338.79L3125.4 1249.31 3125.2 1243.02 3124.63 1237.1 3123.66 1231.52 3122.25 1226.4 3120.49 1221.63 3118.34 1217.28 3115.75 1213.34 3112.79 1209.75 3109.4 1206.63 3105.7 1203.98 3101.54 1201.65 3097.01 1199.79 3092.19 1198.38 3086.94 1197.36 3081.32 1196.73 3075.36 1196.54ZM3075.44 1199.54 3081.23 1199.73 3086.6 1200.34 3091.61 1201.32 3096.16 1202.67 3100.39 1204.43 3104.23 1206.6 3107.65 1209.07 3110.76 1211.95 3113.43 1215.24 3115.83 1218.92 3117.8 1222.95 3119.43 1227.43 3120.77 1232.31 3121.67 1237.61 3122.22 1243.31 3122.4 1249.4 3122.4 1337.29 3103.4 1337.29 3103.4 1317.29C3103.4 1316.46 3102.73 1315.79 3101.9 1315.79L3101.34 1315.79C3100.83 1315.79 3100.36 1316.04 3100.09 1316.46L3096.27 1322.21 3092.25 1327.06 3087.64 1331.24 3082.83 1334.49 3077.43 1337.13 3071.68 1338.99 3065.5 1340.13 3058.94 1340.48 3049.56 1339.8 3041.2 1337.86 3034.04 1334.56 3027.93 1330 3023.08 1324.37 3019.61 1317.91 3017.51 1310.52 3016.78 1302.22 3017.45 1293.35 3019.5 1285.51 3022.91 1278.68 3027.71 1272.86 3033.85 1267.93 3041.37 1263.99 3050.5 1260.9 3060.93 1258.89 3102.11 1253.09C3102.88 1252.98 3103.44 1252.3 3103.4 1251.52L3102.96 1243.33 3101.62 1236.02C3101.61 1235.93 3101.58 1235.85 3101.55 1235.77L3099.3 1229.71C3099.27 1229.6 3099.22 1229.51 3099.16 1229.42L3096.04 1224.54C3095.97 1224.44 3095.9 1224.35 3095.81 1224.27L3091.81 1220.45C3091.72 1220.37 3091.62 1220.29 3091.51 1220.23L3086.64 1217.48C3086.53 1217.42 3086.42 1217.38 3086.31 1217.35L3080.56 1215.72C3080.46 1215.7 3080.37 1215.68 3080.28 1215.67L3073.65 1215.11 3067.34 1215.35 3061.2 1216.18 3055.26 1217.51 3049.43 1219.43 3043.82 1221.78 3038.3 1224.79 3032.95 1228.28 3030.21 1230.41 3030.21 1211.78 3034.65 1209.21 3039.88 1206.63 3045.32 1204.5 3050.97 1202.72 3056.81 1201.31 3062.83 1200.33 3069.05 1199.72ZM3069.34 1202.71 3063.31 1203.29 3057.52 1204.23 3051.88 1205.58 3046.42 1207.29 3041.2 1209.32 3036.15 1211.81 3033.21 1213.51 3033.21 1224.28 3031.31 1225.78 3036.87 1222.15 3042.65 1219.02 3048.49 1216.58 3054.6 1214.59 3060.79 1213.21 3067.22 1212.36 3073.9 1212.12 3080.53 1212.68C3080.81 1212.71 3081.1 1212.76 3081.37 1212.83L3087.12 1214.46C3087.47 1214.56 3087.8 1214.69 3088.11 1214.87L3092.98 1217.62C3093.31 1217.8 3093.61 1218.03 3093.88 1218.28L3097.88 1222.09C3098.14 1222.34 3098.37 1222.62 3098.56 1222.92L3101.69 1227.8C3101.86 1228.07 3102.01 1228.36 3102.12 1228.66L3104.37 1234.72C3104.46 1234.97 3104.53 1235.22 3104.57 1235.47L3105.96 1243.17 3106.39 1251.36C3106.52 1253.69 3104.84 1255.73 3102.53 1256.06L3061.51 1261.83 3051.46 1263.74 3042.55 1266.75 3035.5 1270.45 3029.83 1275.01 3025.45 1280.32 3022.32 1286.57 3020.42 1293.85 3019.79 1302.2 3020.47 1309.97 3022.41 1316.78 3025.57 1322.66 3029.98 1327.79 3035.59 1331.96 3042.18 1335.01 3050.01 1336.83 3058.77 1337.48 3064.95 1337.18 3070.75 1336.14 3076.11 1334.43 3081.32 1331.89 3085.63 1329.02 3090.07 1324.99 3093.77 1320.55 3097.59 1314.8C3098.42 1313.55 3099.83 1312.79 3101.34 1312.79L3101.9 1312.79C3104.38 1312.79 3106.4 1314.8 3106.4 1317.29L3106.4 1334.29 3119.4 1334.29 3119.4 1249.49 3119.23 1243.6 3118.71 1238.12 3117.87 1233.11 3116.61 1228.46 3115.11 1224.28 3113.32 1220.57 3111.1 1217.14 3108.72 1214.16 3105.9 1211.51 3102.75 1209.21 3099.24 1207.2 3095.32 1205.55 3091.04 1204.27 3086.27 1203.32 3081.13 1202.72 3075.53 1202.54ZM2936.25 1193.54 2943.2 1193.79 2949.8 1194.64 2956.01 1196.1 2961.91 1198.18 2967.37 1200.81 2972.47 1204.08 2977.2 1207.95 2981.47 1212.37 2985.24 1217.33 2988.52 1222.81 2991.27 1228.54 2993.52 1234.86 2995.25 1241.47 2996.46 1248.54 2997.19 1255.98 2997.46 1263.83 2997.46 1275.54C2997.46 1278.03 2995.45 1280.04 2992.96 1280.04L2900.83 1280.04 2901.35 1285.6 2903.54 1294.41 2906.96 1301.77 2911.65 1307.98 2914.45 1310.67 2917.39 1312.8 2920.69 1314.73 2924.13 1316.25 2927.91 1317.45 2931.89 1318.26 2936.3 1318.83 2940.94 1318.98 2946.33 1318.73 2951.6 1318.07 2956.65 1316.9 2961.72 1315.36 2966.62 1313.32 2971.41 1310.85 2976.16 1307.9 2980.83 1304.52C2982.2 1303.53 2984.01 1303.39 2985.51 1304.16 2987.02 1304.93 2987.96 1306.48 2987.96 1308.16L2987.96 1328.85C2987.96 1330.38 2987.18 1331.81 2985.9 1332.63L2981.15 1335.7 2975.76 1338.58 2969.93 1341.01 2963.78 1343.01 2957.19 1344.5 2950.44 1345.61 2943.18 1346.27 2935.64 1346.48 2928.26 1346.16 2921.13 1345.25 2914.4 1343.74 2908.03 1341.54 2902.04 1338.73 2896.43 1335.22 2891.27 1331.11 2886.53 1326.41 2882.31 1321.15 2878.64 1315.29 2875.55 1309.1 2873.04 1302.26 2871.06 1295.11 2869.71 1287.36 2868.86 1279.26 2868.59 1270.68 2868.9 1262.55 2869.74 1254.74 2871.24 1247.27 2873.33 1240.14 2876.04 1233.41 2879.35 1227.02 2883.26 1221.01 2887.78 1215.4 2892.76 1210.32 2898.04 1205.94 2903.65 1202.17 2909.6 1199.1 2915.88 1196.7 2922.36 1194.94 2929.18 1193.9ZM2929.62 1196.87 2923.14 1197.84 2916.93 1199.51 2910.97 1201.77 2905.32 1204.67 2899.95 1208.26 2894.89 1212.42 2890.11 1217.28 2885.77 1222.65 2882.01 1228.41 2878.82 1234.54 2876.21 1240.99 2874.18 1247.87 2872.72 1255.07 2871.9 1262.67 2871.59 1270.59 2871.84 1278.94 2872.67 1286.86 2873.95 1294.31 2875.86 1301.24 2878.24 1307.77 2881.19 1313.71 2884.66 1319.29 2888.65 1324.29 2893.15 1328.77 2898.03 1332.68 2903.32 1336.02 2909.03 1338.71 2915.07 1340.81 2921.52 1342.28 2928.4 1343.16 2935.56 1343.48 2942.91 1343.28 2949.95 1342.65 2956.54 1341.57 2962.86 1340.15 2968.78 1338.24 2974.35 1335.93 2979.52 1333.18 2984.27 1330.11C2984.7 1329.84 2984.96 1329.36 2984.96 1328.85L2984.96 1308.16C2984.96 1307.6 2984.65 1307.09 2984.14 1306.83 2983.64 1306.57 2983.04 1306.62 2982.58 1306.95L2977.74 1310.45 2972.78 1313.52 2967.77 1316.09 2962.59 1318.23 2957.32 1319.83 2951.97 1321.05 2946.46 1321.73 2940.83 1321.98 2935.91 1321.8 2931.27 1321.2 2926.99 1320.3 2922.89 1318.99 2919.16 1317.31 2915.6 1315.21 2912.37 1312.83 2909.4 1309.98 2904.38 1303.33 2900.69 1295.41 2898.38 1286.1 2897.54 1277.04 2992.96 1277.04C2993.79 1277.04 2994.46 1276.37 2994.46 1275.54L2994.46 1263.93 2994.2 1256.27 2993.5 1249.04 2992.35 1242.22 2990.69 1235.86 2988.57 1229.83 2985.94 1224.34 2982.85 1219.14 2979.3 1214.44 2975.29 1210.26 2970.84 1206.59 2966.06 1203.5 2960.9 1201 2955.31 1199.02 2949.41 1197.61 2943.08 1196.79 2936.39 1196.54ZM2936.53 1199.54 2942.97 1199.79 2949.02 1200.59 2954.61 1201.94 2959.9 1203.83 2964.74 1206.2 2969.21 1209.11 2973.38 1212.57 2977.13 1216.51 2980.45 1220.94 2983.36 1225.87 2985.86 1231.12 2987.86 1236.85 2989.45 1242.98 2990.54 1249.54 2991.22 1256.56 2991.46 1264.03 2991.46 1274.04 2895.9 1274.04C2895.48 1274.04 2895.07 1274.22 2894.79 1274.53 2894.51 1274.84 2894.37 1275.26 2894.41 1275.68L2895.41 1286.49C2895.41 1286.57 2895.42 1286.64 2895.44 1286.71L2897.82 1296.28C2897.84 1296.37 2897.87 1296.46 2897.91 1296.55L2901.73 1304.74C2901.77 1304.83 2901.83 1304.92 2901.89 1305.01L2907.08 1311.88C2907.12 1311.94 2907.18 1312 2907.24 1312.06L2910.3 1315 2913.82 1317.62 2917.63 1319.89 2921.66 1321.72 2926.06 1323.15 2930.65 1324.13 2935.52 1324.78 2940.72 1324.98 2946.59 1324.73 2952.33 1324.03 2957.98 1322.75 2963.46 1321.1 2968.91 1318.86 2974.15 1316.19 2979.31 1313 2981.96 1311.1 2981.96 1328.03 2977.9 1330.65 2972.95 1333.28 2967.64 1335.47 2961.94 1337.3 2955.89 1338.64 2949.47 1339.68 2942.64 1340.3 2935.48 1340.48 2928.53 1340.17 2921.9 1339.3 2915.73 1337.89 2910.02 1335.87 2904.6 1333.31 2899.64 1330.15 2895.03 1326.43 2890.77 1322.17 2887.01 1317.42 2883.74 1312.12 2880.93 1306.44 2878.68 1300.22 2876.84 1293.52 2875.63 1286.35 2874.83 1278.63 2874.59 1270.49 2874.9 1262.79 2875.7 1255.39 2877.12 1248.46 2879.09 1241.84 2881.6 1235.67 2884.67 1229.8 2888.28 1224.3 2892.44 1219.17 2897.03 1214.53 2901.85 1210.57 2906.98 1207.16 2912.33 1204.44 2917.99 1202.32 2923.91 1200.74 2930.06 1199.84ZM2930.5 1202.8 2924.69 1203.64 2919.05 1205.13 2913.7 1207.11 2908.65 1209.66 2903.76 1212.89 2899.16 1216.64 2894.77 1221.06 2890.79 1225.94 2887.33 1231.18 2884.38 1236.79 2881.96 1242.69 2880.06 1249.06 2878.69 1255.71 2877.9 1262.91 2877.58 1270.4 2877.81 1278.32 2878.58 1285.84 2879.74 1292.72 2881.5 1299.19 2883.62 1305.11 2886.28 1310.54 2889.36 1315.55 2892.89 1320.05 2896.9 1324.09 2901.25 1327.61 2905.88 1330.6 2911.01 1333.04 2916.4 1334.96 2922.29 1336.33 2928.66 1337.17 2935.41 1337.48 2942.37 1337.31 2948.99 1336.72 2955.24 1335.71 2961.02 1334.44 2966.49 1332.69 2971.54 1330.63 2976.27 1328.13 2978.96 1326.4 2978.96 1316.96 2980.89 1315.56 2975.51 1318.86 2970.05 1321.64 2964.33 1323.97 2958.65 1325.68 2952.69 1327.01 2946.72 1327.72 2940.61 1327.97 2935.12 1327.75 2930.03 1327.07 2925.14 1326.01 2920.42 1324.45 2916.1 1322.47 2912.03 1320.03 2908.22 1317.16 2905.16 1314.22C2904.99 1314.06 2904.83 1313.88 2904.68 1313.69L2899.49 1306.81C2899.3 1306.56 2899.14 1306.29 2899.01 1306L2895.19 1297.81C2895.07 1297.55 2894.98 1297.28 2894.91 1297L2892.53 1287.44C2892.48 1287.22 2892.44 1286.99 2892.42 1286.77L2891.42 1275.95C2891.3 1274.69 2891.72 1273.44 2892.57 1272.51 2893.43 1271.57 2894.63 1271.04 2895.9 1271.04L2988.46 1271.04 2988.46 1264.13 2988.23 1256.85 2987.59 1250.04 2986.54 1243.73 2985.03 1237.84 2983.15 1232.41 2980.78 1227.4 2978.05 1222.75 2974.96 1218.58 2971.47 1214.88 2967.57 1211.63 2963.43 1208.9 2958.89 1206.65 2953.91 1204.85 2948.63 1203.56 2942.85 1202.79 2936.67 1202.53ZM2331.35 1193.54 2340.5 1193.98 2349.2 1195.28 2357.43 1197.44 2365.16 1200.56C2366.86 1201.25 2367.96 1202.9 2367.96 1204.73L2367.96 1227.29C2367.96 1228.91 2367.09 1230.41 2365.67 1231.21 2364.26 1232.01 2362.52 1231.98 2361.13 1231.14L2353.68 1226.63 2346.26 1223.59 2338.57 1221.75 2330.35 1221.09 2325.81 1221.35 2321.27 1222 2317.07 1223.09 2313.07 1224.58 2309.37 1226.49 2305.85 1228.81 2302.5 1231.59 2299.36 1234.82 2296.46 1238.43 2294.06 1242.22 2291.89 1246.43 2290.22 1250.8 2288.84 1255.51 2287.95 1260.48 2287.3 1265.89 2287.15 1271.49 2287.33 1277.08 2287.93 1282.29 2288.83 1287.25 2290.16 1291.72 2291.79 1296.01 2293.77 1299.79 2296.13 1303.42 2298.8 1306.61 2301.8 1309.52 2305.04 1312.1 2308.44 1314.14 2312.17 1315.93 2316.05 1317.22 2320.27 1318.23 2324.71 1318.76 2329.55 1318.98 2337.45 1318.28 2345.33 1316.22 2352.99 1312.76 2360.78 1307.76C2362.16 1306.86 2363.92 1306.8 2365.37 1307.59 2366.81 1308.38 2367.71 1309.89 2367.71 1311.54L2367.71 1332.48C2367.71 1334.19 2366.74 1335.75 2365.21 1336.51L2356.9 1340.63 2347.32 1343.87C2347.11 1343.94 2346.9 1343.99 2346.69 1344.03L2336.88 1345.78 2325.85 1346.47 2318.2 1346.16 2311.01 1345.25 2304.07 1343.67 2297.57 1341.49 2291.33 1338.54 2285.53 1335.09 2280.08 1330.91 2275.03 1326.1 2270.49 1320.85 2266.51 1315.17 2263.19 1309.05 2260.44 1302.6 2258.34 1295.79 2256.81 1288.66 2255.93 1281.18 2255.59 1273.42 2255.9 1264.81 2256.8 1256.61 2258.43 1248.74 2260.65 1241.31 2263.56 1234.25 2267.06 1227.67 2271.25 1221.5 2276.09 1215.75 2281.49 1210.59 2287.36 1206.08 2293.63 1202.25 2300.41 1199.13 2307.49 1196.66 2315.12 1194.96 2322.99 1193.89ZM2323.39 1196.87 2315.76 1197.89 2308.47 1199.5 2301.65 1201.86 2295.18 1204.82 2289.18 1208.47 2283.55 1212.77 2278.38 1217.69 2273.72 1223.19 2269.7 1229.08 2266.33 1235.4 2263.52 1242.17 2261.37 1249.36 2259.78 1256.94 2258.9 1264.92 2258.59 1273.29 2258.91 1280.84 2259.74 1288.04 2261.21 1294.91 2263.2 1301.44 2265.83 1307.63 2268.98 1313.46 2272.76 1318.89 2277.11 1323.93 2281.92 1328.54 2287.07 1332.51 2292.63 1335.83 2298.54 1338.65 2304.75 1340.75 2311.4 1342.28 2318.33 1343.16 2325.68 1343.47 2336.35 1342.83 2346.16 1341.08C2346.23 1341.07 2346.3 1341.05 2346.37 1341.03L2355.57 1337.95 2363.88 1333.82C2364.39 1333.57 2364.71 1333.05 2364.71 1332.48L2364.71 1311.54C2364.71 1310.99 2364.41 1310.49 2363.93 1310.22 2363.45 1309.96 2362.86 1309.98 2362.4 1310.28L2354.43 1315.41 2346.33 1319.06 2337.96 1321.24 2329.41 1321.98 2324.34 1321.74 2319.57 1321.14 2315.07 1320.06 2310.87 1318.63 2306.87 1316.7 2303.15 1314.44 2299.7 1311.66 2296.49 1308.52 2293.6 1305.04 2291.11 1301.17 2288.99 1297.07 2287.28 1292.56 2285.88 1287.78 2284.95 1282.62 2284.34 1277.18 2284.15 1271.4 2284.33 1265.53 2285 1259.94 2285.96 1254.65 2287.42 1249.71 2289.23 1245.04 2291.54 1240.6 2294.13 1236.55 2297.22 1232.72 2300.6 1229.26 2304.22 1226.3 2308.02 1223.81 2312.04 1221.76 2316.33 1220.18 2320.86 1219.03 2325.66 1218.35 2330.59 1218.1 2339.04 1218.78 2347.19 1220.72 2355.03 1223.95 2362.69 1228.57C2363.15 1228.85 2363.73 1228.86 2364.2 1228.6 2364.67 1228.33 2364.96 1227.83 2364.96 1227.29L2364.96 1204.73C2364.96 1204.12 2364.59 1203.57 2364.03 1203.34L2356.66 1200.34 2348.75 1198.24 2340.35 1196.98 2331.46 1196.54ZM2331.58 1199.54 2340.2 1199.98 2348.3 1201.21 2355.89 1203.24 2361.96 1205.73 2361.96 1224.63 2356.49 1221.32C2356.42 1221.28 2356.35 1221.24 2356.28 1221.21L2348.22 1217.9C2348.15 1217.87 2348.07 1217.85 2348 1217.83L2339.62 1215.83C2339.55 1215.81 2339.47 1215.8 2339.39 1215.79L2330.83 1215.11 2325.51 1215.35 2320.44 1216.05 2315.59 1217.27 2311.01 1218.94 2306.66 1221.14 2302.58 1223.78 2298.7 1226.94 2295.08 1230.61 2291.8 1234.66 2289.01 1238.98 2286.57 1243.66 2284.63 1248.62 2283.09 1253.8 2282.05 1259.39 2281.35 1265.17 2281.15 1271.31 2281.34 1277.28 2281.97 1282.96 2282.92 1288.3 2284.4 1293.4 2286.18 1298.13 2288.44 1302.54 2291.07 1306.66 2294.18 1310.43 2297.6 1313.8 2301.27 1316.77 2305.3 1319.26 2309.56 1321.33 2314.1 1322.9 2318.86 1324.06 2323.96 1324.72 2329.26 1324.98 2338.34 1324.22C2338.42 1324.21 2338.51 1324.2 2338.59 1324.18L2347.21 1321.93C2347.3 1321.91 2347.38 1321.88 2347.45 1321.84L2355.77 1318.09C2355.83 1318.06 2355.9 1318.03 2355.96 1317.99L2361.71 1314.29 2361.71 1331.55 2354.23 1335.26 2345.53 1338.14 2335.82 1339.88 2325.5 1340.48 2318.46 1340.17 2311.78 1339.3 2305.42 1337.83 2299.51 1335.81 2293.92 1333.12 2288.61 1329.94 2283.76 1326.17 2279.19 1321.77 2275.04 1316.94 2271.44 1311.75 2268.47 1306.2 2265.97 1300.27 2264.08 1294.04 2262.68 1287.41 2261.89 1280.49 2261.58 1273.16 2261.9 1265.03 2262.76 1257.27 2264.3 1249.97 2266.4 1243.03 2269.1 1236.55 2272.35 1230.5 2276.2 1224.89 2280.67 1219.64 2285.62 1214.94 2290.99 1210.86 2296.74 1207.38 2302.9 1204.59 2309.45 1202.33 2316.41 1200.82 2323.78 1199.84ZM2324.18 1202.81 2317.05 1203.75 2310.43 1205.17 2304.14 1207.32 2298.29 1209.95 2292.81 1213.25 2287.69 1217.11 2282.95 1221.58 2278.67 1226.58 2274.99 1231.91 2271.87 1237.7 2269.27 1243.9 2267.24 1250.59 2265.75 1257.6 2264.9 1265.15 2264.58 1273.04 2264.87 1280.15 2265.61 1286.79 2266.95 1293.17 2268.73 1299.1 2271.11 1304.78 2273.91 1310.04 2277.31 1314.98 2281.27 1319.61 2285.59 1323.8 2290.15 1327.36 2295.22 1330.42 2300.47 1332.97 2306.1 1334.91 2312.16 1336.33 2318.59 1337.17 2325.32 1337.49 2335.3 1336.92 2344.79 1335.23 2352.9 1332.57 2358.71 1329.69 2358.71 1319.79 2357.58 1320.51C2357.4 1320.63 2357.2 1320.74 2357 1320.83L2348.69 1324.58C2348.46 1324.68 2348.22 1324.77 2347.97 1324.83L2339.35 1327.08C2339.1 1327.15 2338.85 1327.19 2338.59 1327.21L2329.12 1327.97 2323.58 1327.69 2318.15 1326.97 2313.13 1325.73 2308.25 1324.03 2303.73 1321.81 2299.39 1319.1 2295.5 1315.94 2291.87 1312.35 2288.55 1308.28 2285.77 1303.91 2283.38 1299.19 2281.52 1294.24 2279.97 1288.83 2278.99 1283.29 2278.34 1277.37 2278.15 1271.21 2278.37 1264.81 2279.1 1258.85 2280.21 1252.95 2281.83 1247.53 2283.91 1242.27 2286.49 1237.36 2289.46 1232.77 2292.94 1228.51 2296.8 1224.62 2300.94 1221.27 2305.3 1218.46 2309.98 1216.13 2314.86 1214.37 2320.03 1213.08 2325.37 1212.36 2331.07 1212.12 2339.63 1212.8C2339.86 1212.82 2340.09 1212.86 2340.32 1212.91L2348.69 1214.91C2348.92 1214.97 2349.14 1215.04 2349.36 1215.13L2357.42 1218.44C2357.64 1218.53 2357.84 1218.63 2358.04 1218.75L2358.96 1219.31 2358.96 1207.75 2355.12 1206.14 2347.85 1204.18 2340.05 1202.97 2331.7 1202.54ZM2076.97 1193.54 2084.84 1193.86 2092.26 1194.76 2099.33 1196.34 2105.95 1198.52 2112.19 1201.31 2118.04 1204.81 2123.43 1209 2128.31 1213.77 2132.69 1219.06 2136.5 1224.92 2139.67 1231.21 2142.29 1238 2144.3 1245.15 2145.76 1252.76 2146.62 1260.82 2146.9 1269.34 2146.58 1277.65 2145.68 1285.62 2144.19 1293.17 2142.09 1300.37 2139.31 1307.19 2135.94 1313.59 2131.94 1319.56 2127.26 1325.09 2122.06 1330.05 2116.47 1334.41 2110.4 1338.09 2103.92 1341.12 2097.03 1343.49 2089.74 1345.12 2082.17 1346.13 2074.15 1346.47 2066.33 1346.16 2058.91 1345.26 2051.84 1343.68 2045.09 1341.43 2038.78 1338.57 2032.83 1335.02 2027.28 1330.8 2022.18 1325.99 2017.6 1320.64 2013.61 1314.82 2010.25 1308.61 2007.49 1302.01 2005.34 1295.04 2003.8 1287.63 2002.93 1279.85 2002.59 1271.78 2002.9 1263 2003.8 1254.73 2005.36 1246.9 2007.52 1239.52 2010.28 1232.56 2013.75 1226.08 2017.88 1220.05 2022.64 1214.57 2027.91 1209.67 2033.68 1205.41 2039.81 1201.78 2046.45 1198.8 2053.45 1196.51 2060.89 1194.89 2068.71 1193.89ZM2069.09 1196.86 2061.52 1197.82 2054.37 1199.36 2047.66 1201.54 2041.33 1204.37 2035.45 1207.83 2029.94 1211.88 2024.9 1216.55 2020.35 1221.75 2016.39 1227.51 2013.07 1233.67 2010.4 1240.37 2008.3 1247.49 2006.78 1255.06 2005.9 1263.11 2005.59 1271.66 2005.91 1279.52 2006.74 1287.03 2008.21 1294.16 2010.26 1300.86 2012.89 1307.19 2016.09 1313.13 2019.88 1318.7 2024.24 1323.82 2029.11 1328.42 2034.37 1332.45 2040.02 1335.84 2046.05 1338.59 2052.51 1340.75 2059.28 1342.28 2066.46 1343.16 2074.02 1343.48 2081.78 1343.15 2089.1 1342.19 2096.07 1340.65 2102.66 1338.4 2108.86 1335.51 2114.63 1332.04 2119.99 1327.88 2124.98 1323.14 2129.46 1317.88 2133.29 1312.18 2136.54 1306.05 2139.21 1299.52 2141.24 1292.58 2142.7 1285.27 2143.59 1277.54 2143.9 1269.43 2143.64 1261.13 2142.81 1253.32 2141.41 1245.95 2139.49 1239.07 2136.99 1232.56 2133.97 1226.54 2130.37 1220.96 2126.2 1215.91 2121.57 1211.36 2116.49 1207.38 2110.95 1204.05 2105 1201.37 2098.67 1199.26 2091.9 1197.74 2084.71 1196.85 2077.09 1196.54ZM2077.21 1199.54 2084.59 1199.85 2091.53 1200.72 2098.01 1202.19 2104.05 1204.21 2109.72 1206.78 2114.94 1209.95 2119.72 1213.72 2124.1 1218.05 2128.05 1222.87 2131.45 1228.16 2134.31 1233.9 2136.69 1240.14 2138.52 1246.75 2139.86 1253.88 2140.66 1261.45 2140.9 1269.52 2140.59 1277.42 2139.72 1284.93 2138.3 1292 2136.33 1298.68 2133.76 1304.91 2130.64 1310.77 2126.97 1316.2 2122.7 1321.19 2117.93 1325.7 2112.79 1329.67 2107.31 1332.94 2101.39 1335.68 2095.1 1337.81 2088.45 1339.26 2081.39 1340.18 2073.9 1340.48 2066.59 1340.17 2059.65 1339.3 2053.17 1337.83 2047 1335.74 2041.27 1333.11 2035.92 1329.88 2030.94 1326.04 2026.31 1321.64 2022.17 1316.76 2018.58 1311.45 2015.53 1305.77 2013.03 1299.72 2011.08 1293.29 2009.68 1286.43 2008.89 1279.19 2008.59 1271.54 2008.9 1263.22 2009.76 1255.39 2011.24 1248.09 2013.28 1241.21 2015.85 1234.78 2019.03 1228.94 2022.82 1223.45 2027.15 1218.53 2031.98 1214.08 2037.22 1210.25 2042.85 1206.96 2048.88 1204.29 2055.3 1202.22 2062.15 1200.76 2069.46 1199.84ZM2069.84 1202.82 2062.78 1203.69 2056.22 1205.07 2050.1 1207.03 2044.36 1209.55 2039 1212.67 2034.02 1216.28 2029.41 1220.51 2025.29 1225.16 2021.67 1230.37 2018.64 1235.9 2016.15 1242.06 2014.18 1248.68 2012.75 1255.72 2011.9 1263.33 2011.58 1271.42 2011.87 1278.86 2012.62 1285.82 2013.95 1292.42 2015.81 1298.57 2018.17 1304.35 2021.06 1309.76 2024.45 1314.81 2028.37 1319.46 2032.77 1323.66 2037.47 1327.31 2042.52 1330.39 2047.96 1332.9 2053.83 1334.9 2060.01 1336.32 2066.71 1337.17 2073.78 1337.48 2081 1337.2 2087.81 1336.33 2094.14 1334.97 2100.13 1332.96 2105.77 1330.37 2110.96 1327.29 2115.86 1323.53 2120.41 1319.24 2124.48 1314.52 2127.99 1309.37 2130.99 1303.76 2133.46 1297.83 2135.36 1291.41 2136.74 1284.59 2137.59 1277.3 2137.9 1269.61 2137.67 1261.76 2136.92 1254.44 2135.63 1247.56 2133.88 1241.21 2131.62 1235.24 2128.93 1229.79 2125.74 1224.77 2121.99 1220.18 2117.87 1216.08 2113.38 1212.52 2108.48 1209.52 2103.1 1207.06 2097.34 1205.12 2091.16 1203.69 2084.46 1202.85 2077.33 1202.54ZM1643.46 1171.1 1643.46 1241.1 1662.59 1241.1 1672.99 1240.44 1681.91 1238.59 1689.32 1235.61 1695.4 1231.43 1698 1228.89 1700.16 1226.19 1701.97 1223.27 1703.38 1220.14 1704.59 1216.62 1705.38 1212.93 1705.87 1208.91 1706.03 1204.55 1705.38 1196.56 1703.51 1189.72 1700.52 1184.17 1696.33 1179.61 1690.88 1176 1683.97 1173.32 1675.18 1171.65 1665.2 1171.09ZM1665.37 1168.1 1675.74 1168.7 1684.8 1170.43 1692.27 1173.32 1698.29 1177.31 1702.98 1182.42 1706.31 1188.6 1708.35 1196.05 1709.03 1204.67 1708.85 1209.29 1708.31 1213.59 1707.42 1217.61 1706.1 1221.41 1704.5 1224.87 1702.49 1228.09 1700.1 1231.03 1697.32 1233.75 1690.75 1238.27 1682.78 1241.47 1673.39 1243.42 1662.59 1244.1 1640.46 1244.1 1640.46 1168.1ZM1638.96 1165.1C1638.13 1165.1 1637.46 1165.77 1637.46 1166.6L1637.46 1245.6C1637.46 1246.43 1638.13 1247.1 1638.96 1247.1L1662.59 1247.1 1673.68 1246.41C1673.75 1246.41 1673.82 1246.4 1673.89 1246.38L1683.52 1244.38C1683.6 1244.37 1683.69 1244.34 1683.77 1244.31L1692.02 1240.99C1692.12 1240.95 1692.22 1240.9 1692.31 1240.84L1699.12 1236.15C1699.19 1236.1 1699.26 1236.05 1699.32 1235.99L1702.2 1233.17 1704.81 1229.99 1707.04 1226.46 1708.82 1222.67 1710.25 1218.6 1711.24 1214.24 1711.82 1209.67 1712.02 1204.79 1711.33 1195.67C1711.32 1195.58 1711.31 1195.49 1711.28 1195.39L1709.16 1187.64C1709.13 1187.53 1709.09 1187.43 1709.03 1187.33L1705.53 1180.83C1705.47 1180.72 1705.4 1180.62 1705.32 1180.53L1700.38 1175.15C1700.3 1175.06 1700.2 1174.98 1700.1 1174.91L1693.79 1170.73C1693.7 1170.67 1693.6 1170.62 1693.5 1170.58L1685.75 1167.58C1685.67 1167.55 1685.58 1167.52 1685.49 1167.5L1676.3 1165.75 1665.55 1165.1ZM1665.73 1162.11 1676.87 1162.81 1686.05 1164.56C1686.32 1164.61 1686.58 1164.68 1686.84 1164.78L1694.59 1167.78C1694.89 1167.9 1695.18 1168.05 1695.45 1168.23L1701.76 1172.41C1702.06 1172.62 1702.34 1172.85 1702.59 1173.12L1707.53 1178.5C1707.78 1178.77 1708 1179.08 1708.17 1179.41L1711.67 1185.91C1711.83 1186.21 1711.96 1186.52 1712.05 1186.85L1714.18 1194.6C1714.25 1194.88 1714.3 1195.16 1714.32 1195.44L1715.02 1204.9 1714.8 1210.04 1714.17 1214.9 1713.08 1219.59 1711.54 1223.94 1709.58 1228.06 1707.13 1231.89 1704.3 1235.32 1701.42 1238.13C1701.24 1238.31 1701.04 1238.48 1700.82 1238.62L1694.01 1243.31C1693.74 1243.5 1693.45 1243.65 1693.14 1243.78L1684.89 1247.09C1684.64 1247.19 1684.39 1247.27 1684.13 1247.32L1674.5 1249.32C1674.29 1249.36 1674.08 1249.39 1673.87 1249.41L1662.59 1250.1 1638.96 1250.1C1636.48 1250.1 1634.46 1248.09 1634.46 1245.6L1634.46 1166.6C1634.46 1164.12 1636.48 1162.1 1638.96 1162.1ZM1879.21 1146.23C1879.21 1143.74 1881.23 1141.73 1883.71 1141.73L2017.27 1141.73C2019.76 1141.73 2021.77 1143.74 2021.77 1146.23L2021.77 1166.6C2021.77 1169.09 2019.76 1171.1 2017.27 1171.1L1966.21 1171.1 1966.21 1338.79C1966.21 1341.28 1964.2 1343.29 1961.71 1343.29L1939.15 1343.29C1936.66 1343.29 1934.65 1341.28 1934.65 1338.79L1934.65 1171.1 1883.71 1171.1C1881.23 1171.1 1879.21 1169.09 1879.21 1166.6ZM1882.21 1166.6C1882.21 1167.43 1882.88 1168.1 1883.71 1168.1L1937.65 1168.1 1937.65 1338.79C1937.65 1339.62 1938.32 1340.29 1939.15 1340.29L1961.71 1340.29C1962.54 1340.29 1963.21 1339.62 1963.21 1338.79L1963.21 1168.1 2017.27 1168.1C2018.1 1168.1 2018.77 1167.43 2018.77 1166.6L2018.77 1146.23C2018.77 1145.4 2018.1 1144.73 2017.27 1144.73L1883.71 1144.73C1882.88 1144.73 1882.21 1145.4 1882.21 1146.23ZM1885.21 1147.73 2015.77 1147.73 2015.77 1165.1 1961.71 1165.1C1960.88 1165.1 1960.21 1165.77 1960.21 1166.6L1960.21 1337.29 1940.65 1337.29 1940.65 1166.6C1940.65 1165.77 1939.98 1165.1 1939.15 1165.1L1885.21 1165.1ZM1888.21 1162.1 1939.15 1162.1C1941.63 1162.1 1943.65 1164.12 1943.65 1166.6L1943.65 1334.29 1957.21 1334.29 1957.21 1166.6C1957.21 1164.12 1959.23 1162.1 1961.71 1162.1L2012.77 1162.1 2012.77 1150.73 1888.21 1150.73ZM1611.9 1146.23C1611.9 1143.74 1613.91 1141.73 1616.4 1141.73L1669.34 1141.73 1676.99 1141.98 1684.33 1142.69 1691.32 1143.92 1697.91 1145.62 1704.08 1147.88 1709.79 1150.61 1715.15 1153.9 1720 1157.69 1724.37 1161.96 1728.19 1166.76 1731.41 1171.92 1734.04 1177.44 1736.1 1183.4 1737.54 1189.75 1738.42 1196.47 1738.71 1203.5 1738.39 1210.56 1737.48 1217.34 1735.89 1223.87 1733.7 1230.11 1730.89 1236 1727.39 1241.57 1723.32 1246.81 1718.54 1251.7 1713.26 1256.08 1707.59 1259.9 1701.34 1263.16 1694.81 1265.78 1687.86 1267.86 1680.45 1269.33 1672.64 1270.2 1664.48 1270.47 1643.46 1270.48 1643.46 1338.79C1643.46 1341.28 1641.45 1343.29 1638.96 1343.29L1616.4 1343.29C1613.91 1343.29 1611.9 1341.28 1611.9 1338.79ZM1614.9 1338.79C1614.9 1339.62 1615.57 1340.29 1616.4 1340.29L1638.96 1340.29C1639.79 1340.29 1640.46 1339.62 1640.46 1338.79L1640.46 1267.48 1664.38 1267.48 1672.31 1267.22 1679.88 1266.39 1687.01 1264.98 1693.7 1263 1699.96 1260.5 1705.92 1257.41 1711.35 1253.76 1716.4 1249.59 1720.96 1244.96 1724.85 1239.97 1728.19 1234.69 1730.88 1229.1 1732.98 1223.15 1734.51 1216.93 1735.4 1210.42 1735.71 1203.61 1735.45 1196.85 1734.61 1190.4 1733.26 1184.37 1731.32 1178.72 1728.86 1173.5 1725.83 1168.61 1722.26 1164.1 1718.14 1160.05 1713.56 1156.45 1708.49 1153.31 1703.04 1150.7 1697.15 1148.53 1690.79 1146.88 1684.04 1145.67 1676.89 1144.98 1669.34 1144.73 1616.4 1144.73C1615.57 1144.73 1614.9 1145.4 1614.9 1146.23ZM1617.9 1147.73 1669.34 1147.73 1676.79 1147.98 1683.75 1148.66 1690.26 1149.83 1696.4 1151.43 1702 1153.51 1707.18 1156.02 1711.98 1159 1716.28 1162.41 1720.16 1166.23 1723.47 1170.47 1726.31 1175.08 1728.6 1179.99 1730.42 1185.34 1731.68 1191.05 1732.47 1197.23 1732.71 1203.72 1732.4 1210.28 1731.54 1216.52 1730.07 1222.43 1728.05 1228.1 1725.49 1233.39 1722.32 1238.36 1718.59 1243.12 1714.27 1247.49 1709.45 1251.44 1704.25 1254.92 1698.59 1257.83 1692.59 1260.21 1686.16 1262.1 1679.3 1263.44 1671.99 1264.24 1664.29 1264.48 1638.96 1264.48C1638.13 1264.48 1637.46 1265.15 1637.46 1265.98L1637.46 1337.29 1617.9 1337.29ZM1620.9 1334.29 1634.46 1334.29 1634.46 1265.98C1634.46 1263.49 1636.48 1261.48 1638.96 1261.48L1664.19 1261.48 1671.66 1261.25 1678.72 1260.5 1685.31 1259.22 1691.48 1257.42 1697.21 1255.17 1702.58 1252.43 1707.54 1249.13 1712.13 1245.38 1716.23 1241.27 1719.79 1236.75 1722.78 1232.08 1725.22 1227.1 1727.16 1221.71 1728.57 1216.12 1729.4 1210.14 1729.71 1203.83 1729.5 1197.61 1728.76 1191.71 1727.58 1186.3 1725.89 1181.26 1723.76 1176.66 1721.11 1172.32 1718.05 1168.37 1714.42 1164.76 1710.4 1161.55 1705.88 1158.72 1700.96 1156.32 1695.64 1154.33 1689.73 1152.78 1683.46 1151.64 1676.69 1150.97 1669.34 1150.73 1620.9 1150.73ZM2717.53 1138.48 2732.96 1139.11 2747.21 1141.08 2760.26 1144.37 2772.1 1148.98C2773.83 1149.65 2774.96 1151.31 2774.96 1153.16L2774.96 1178.16C2774.96 1179.77 2774.11 1181.25 2772.72 1182.06 2771.33 1182.86 2769.62 1182.87 2768.22 1182.07L2762.22 1178.63 2756.31 1175.78 2750.07 1173.36 2743.65 1171.41 2736.89 1169.86 2729.9 1168.8 2722.62 1168.15 2715.01 1167.91 2707.49 1168.28 2700.3 1169.25 2693.59 1170.91 2687.23 1173.21 2681.24 1176.15 2675.53 1179.74 2670.28 1183.99 2665.21 1188.9 2660.74 1194.35 2656.81 1200.19 2653.48 1206.37 2650.82 1212.99 2648.63 1220.01 2647.19 1227.42 2646.24 1235.33 2645.96 1243.58 2646.27 1252.13 2647.12 1260.26 2648.57 1267.76 2650.6 1274.8 2653.16 1281.35 2656.28 1287.36 2659.92 1292.89 2664.13 1298 2668.79 1302.51 2673.86 1306.43 2679.29 1309.69 2685.17 1312.4 2691.43 1314.54 2698.14 1316.03 2705.3 1316.95 2712.89 1317.23 2723.42 1316.67 2733.03 1315.04 2741.86 1312.35 2747.34 1309.83 2747.34 1263.23 2709.65 1263.23C2707.16 1263.23 2705.15 1261.21 2705.15 1258.73L2705.15 1238.35C2705.15 1235.87 2707.16 1233.85 2709.65 1233.85L2774.34 1233.85C2776.82 1233.85 2778.84 1235.87 2778.84 1238.35L2778.84 1325.6C2778.84 1327.27 2777.91 1328.81 2776.43 1329.59L2769.05 1333.46 2761.28 1336.91 2753.25 1339.83 2744.96 1342.24 2736.53 1344.06 2727.91 1345.42 2719.04 1346.21 2710.03 1346.48 2699.64 1346.04 2689.69 1344.75 2680.21 1342.62 2671.22 1339.62 2662.69 1335.68 2654.65 1330.9 2647.17 1325.25 2640.19 1318.69 2633.87 1311.42 2628.44 1303.59 2623.78 1295.22 2620 1286.28 2617.04 1276.81 2614.99 1266.74 2613.68 1256.28 2613.28 1245.2 2613.71 1233.92 2615.06 1223.1 2617.39 1212.79 2620.56 1202.96 2624.73 1193.58 2629.81 1184.73 2635.83 1176.45 2642.73 1168.67 2650.35 1161.61 2658.45 1155.5 2667.09 1150.3 2676.2 1146.08 2685.82 1142.78 2695.94 1140.41 2706.48 1138.96ZM2706.88 1141.93 2696.62 1143.33 2686.79 1145.62 2677.46 1148.8 2668.63 1152.88 2660.25 1157.9 2652.38 1163.81 2644.97 1170.67 2638.25 1178.22 2632.41 1186.23 2627.47 1194.8 2623.41 1203.89 2620.31 1213.46 2618.04 1223.48 2616.71 1234.04 2616.27 1245.09 2616.66 1255.91 2617.93 1266.15 2619.9 1275.92 2622.77 1285.12 2626.4 1293.77 2630.91 1301.89 2636.14 1309.46 2642.24 1316.51 2648.99 1322.86 2656.19 1328.33 2663.95 1332.96 2672.17 1336.77 2680.88 1339.69 2690.08 1341.78 2699.77 1343.04 2709.94 1343.48 2718.78 1343.22 2727.44 1342.46 2735.9 1341.13 2744.13 1339.36 2752.22 1337.01 2760.07 1334.16 2767.66 1330.81 2775.03 1326.93C2775.53 1326.67 2775.84 1326.16 2775.84 1325.6L2775.84 1238.35C2775.84 1237.52 2775.16 1236.85 2774.34 1236.85L2709.65 1236.85C2708.82 1236.85 2708.15 1237.52 2708.15 1238.35L2708.15 1258.73C2708.15 1259.56 2708.82 1260.23 2709.65 1260.23L2750.34 1260.23 2750.34 1311.76 2742.72 1315.23 2733.53 1318 2723.57 1319.67 2712.77 1320.23 2704.91 1319.93 2697.48 1318.95 2690.45 1317.37 2683.91 1315.12 2677.74 1312.26 2672.01 1308.8 2666.7 1304.65 2661.81 1299.9 2657.41 1294.53 2653.61 1288.73 2650.36 1282.44 2647.72 1275.63 2645.62 1268.32 2644.14 1260.57 2643.27 1252.24 2642.96 1243.47 2643.26 1234.97 2644.25 1226.83 2645.77 1219.11 2648.04 1211.86 2650.84 1204.94 2654.33 1198.51 2658.43 1192.43 2663.13 1186.74 2668.4 1181.65 2673.94 1177.19 2679.93 1173.45 2686.22 1170.39 2692.88 1168 2699.91 1166.28 2707.35 1165.29 2715.1 1164.91 2722.89 1165.16 2730.36 1165.83 2737.56 1166.94 2744.52 1168.54 2751.17 1170.56 2757.62 1173.08 2763.72 1176.03 2769.72 1179.47C2770.18 1179.73 2770.75 1179.73 2771.21 1179.46 2771.68 1179.19 2771.96 1178.7 2771.96 1178.16L2771.96 1153.16C2771.96 1152.55 2771.58 1151.99 2771.01 1151.77L2759.52 1147.27 2746.79 1144.05 2732.84 1142.1 2717.65 1141.48ZM2717.77 1144.48 2732.71 1145.1 2746.38 1147.03 2758.78 1150.18 2768.96 1154.19 2768.96 1175.58 2765.21 1173.43 2758.93 1170.38 2752.26 1167.77 2745.4 1165.67 2738.24 1164.02 2730.81 1162.87 2723.16 1162.17 2715.2 1161.92 2707.2 1162.29 2699.51 1163.3 2692.17 1165.08 2685.21 1167.56 2678.62 1170.75 2672.36 1174.64 2666.52 1179.31 2661.04 1184.59 2656.12 1190.52 2651.84 1196.82 2648.21 1203.51 2645.26 1210.72 2642.91 1218.22 2641.3 1226.25 2640.28 1234.61 2639.96 1243.36 2640.27 1252.34 2641.16 1260.88 2642.68 1268.88 2644.83 1276.45 2647.56 1283.52 2650.94 1290.1 2654.89 1296.17 2659.49 1301.8 2664.6 1306.8 2670.16 1311.16 2676.18 1314.82 2682.64 1317.84 2689.47 1320.21 2696.82 1321.88 2704.51 1322.9 2712.65 1323.23 2723.73 1322.66 2734.02 1320.96 2743.58 1318.1 2752.46 1314.09C2752.99 1313.85 2753.34 1313.32 2753.34 1312.73L2753.34 1258.73C2753.34 1257.9 2752.66 1257.23 2751.84 1257.23L2711.15 1257.23 2711.15 1239.85 2772.84 1239.85 2772.84 1324.7 2766.26 1328.15 2758.86 1331.42 2751.2 1334.19 2743.29 1336.47 2735.27 1338.2 2726.98 1339.5 2718.52 1340.23 2709.86 1340.48 2699.9 1340.04 2690.47 1338.8 2681.54 1336.76 2673.13 1333.93 2665.22 1330.24 2657.73 1325.75 2650.81 1320.47 2644.3 1314.32 2638.41 1307.5 2633.38 1300.19 2629.02 1292.31 2625.53 1283.96 2622.77 1275.03 2620.87 1265.56 2619.64 1255.54 2619.27 1244.99 2619.71 1234.16 2621.01 1223.85 2623.24 1214.12 2626.26 1204.82 2630.21 1196.03 2635.01 1187.73 2640.67 1179.99 2647.21 1172.66 2654.42 1166.02 2662.05 1160.3 2670.17 1155.45 2678.71 1151.53 2687.76 1148.46 2697.3 1146.25 2707.29 1144.9ZM2707.69 1147.87 2697.98 1149.17 2688.72 1151.3 2679.97 1154.25 2671.71 1158.03 2663.85 1162.7 2656.45 1168.22 2649.45 1174.66 2643.1 1181.76 2637.61 1189.23 2632.94 1197.25 2629.12 1205.74 2626.16 1214.79 2623.99 1224.23 2622.71 1234.28 2622.27 1244.88 2622.61 1255.18 2623.81 1264.96 2625.63 1274.14 2628.3 1282.8 2631.65 1290.86 2635.85 1298.49 2640.68 1305.53 2646.36 1312.14 2652.62 1318.08 2659.27 1323.18 2666.48 1327.52 2674.08 1331.09 2682.21 1333.84 2690.86 1335.83 2700.03 1337.04 2709.77 1337.48 2718.26 1337.24 2726.51 1336.53 2734.64 1335.27 2742.46 1333.59 2750.18 1331.37 2757.64 1328.67 2764.87 1325.49 2769.84 1322.88 2769.84 1242.85 2714.15 1242.85 2714.15 1254.23 2751.84 1254.23C2754.32 1254.23 2756.34 1256.24 2756.34 1258.73L2756.34 1312.73C2756.34 1314.49 2755.3 1316.1 2753.69 1316.83L2744.44 1320.97 2734.51 1323.92 2723.88 1325.66 2712.54 1326.22 2704.12 1325.88 2696.16 1324.8 2688.49 1323.04 2681.38 1320.56 2674.63 1317.39 2668.31 1313.52 2662.51 1308.95 2657.17 1303.7 2652.38 1297.81 2648.27 1291.47 2644.77 1284.6 2641.95 1277.28 2639.73 1269.44 2638.17 1261.19 2637.28 1252.45 2636.96 1243.25 2637.31 1234.25 2638.36 1225.66 2640.04 1217.32 2642.48 1209.59 2645.57 1202.08 2649.36 1195.14 2653.81 1188.61 2658.96 1182.43 2664.65 1176.97 2670.77 1172.09 2677.31 1168.05 2684.2 1164.74 2691.46 1162.17 2699.12 1160.33 2707.06 1159.29 2715.29 1158.92 2723.43 1159.18 2731.27 1159.9 2738.91 1161.09 2746.28 1162.8 2753.35 1164.97 2760.24 1167.68 2766.7 1170.82 2765.96 1170.4 2765.96 1156.23 2758.04 1153.09 2745.96 1150 2732.59 1148.1 2717.9 1147.47ZM2810.96 1135.23C2810.96 1132.74 2812.98 1130.73 2815.46 1130.73L2837.46 1130.73C2839.95 1130.73 2841.96 1132.74 2841.96 1135.23L2841.96 1338.79C2841.96 1341.28 2839.95 1343.29 2837.46 1343.29L2815.46 1343.29C2812.98 1343.29 2810.96 1341.28 2810.96 1338.79ZM2813.96 1338.79C2813.96 1339.62 2814.63 1340.29 2815.46 1340.29L2837.46 1340.29C2838.29 1340.29 2838.96 1339.62 2838.96 1338.79L2838.96 1135.23C2838.96 1134.4 2838.29 1133.73 2837.46 1133.73L2815.46 1133.73C2814.63 1133.73 2813.96 1134.4 2813.96 1135.23ZM2816.96 1136.73 2835.96 1136.73 2835.96 1337.29 2816.96 1337.29ZM2819.96 1334.29 2832.96 1334.29 2832.96 1139.73 2819.96 1139.73ZM2391.96 1135.23C2391.96 1132.74 2393.98 1130.73 2396.46 1130.73L2418.46 1130.73C2420.95 1130.73 2422.96 1132.74 2422.96 1135.23L2422.96 1219.6 2416.65 1219.6 2419.5 1215.44 2424.38 1209.78 2429.76 1204.88 2435.69 1200.82C2435.87 1200.69 2436.07 1200.58 2436.27 1200.48L2442.14 1197.67 2448.93 1195.39C2449.13 1195.32 2449.34 1195.27 2449.55 1195.23L2456.24 1194.05 2463.87 1193.55 2469.97 1193.79 2475.56 1194.45 2480.91 1195.66 2485.87 1197.26 2490.59 1199.48 2494.84 1202.1 2498.79 1205.34 2502.24 1208.95 2505.34 1213.13 2507.95 1217.71 2510.15 1222.75 2511.98 1228.1 2513.35 1234.04 2514.29 1240.25 2514.88 1246.89 2515.08 1253.91 2515.09 1338.79C2515.09 1341.28 2513.07 1343.29 2510.59 1343.29L2488.59 1343.29C2486.1 1343.29 2484.09 1341.28 2484.09 1338.79L2484.09 1259.54 2483.59 1249.7 2482.21 1241.84 2479.97 1235.23 2476.97 1230.08 2473.24 1226.2 2468.71 1223.42 2463.27 1221.73 2456.24 1221.08 2452.93 1221.28 2449.56 1221.8 2446.47 1222.69 2443.42 1223.92 2440.5 1225.42 2437.87 1227.26 2435.26 1229.52 2432.98 1231.88 2428.61 1237.95 2425.48 1244.67 2423.61 1252.31 2422.95 1261.25 2422.96 1338.79C2422.96 1341.28 2420.95 1343.29 2418.46 1343.29L2396.46 1343.29C2393.98 1343.29 2391.96 1341.28 2391.96 1338.79ZM2394.96 1338.79C2394.96 1339.62 2395.63 1340.29 2396.46 1340.29L2418.46 1340.29C2419.29 1340.29 2419.96 1339.62 2419.96 1338.79L2419.96 1261.03 2420.64 1251.84 2422.63 1243.66 2426.01 1236.43 2430.68 1229.95 2433.31 1227.24 2436.18 1224.78 2439.14 1222.75 2442.32 1221.12 2445.67 1219.8 2449.12 1218.84 2452.78 1218.29 2456.51 1218.1 2463.85 1218.77 2469.96 1220.67 2475.14 1223.84 2479.38 1228.26 2482.71 1233.98 2485.13 1241.1 2486.59 1249.55 2487.09 1259.54 2487.09 1338.79C2487.09 1339.62 2487.76 1340.29 2488.59 1340.29L2510.59 1340.29C2511.41 1340.29 2512.09 1339.62 2512.09 1338.79L2512.09 1254 2511.89 1247.16 2511.32 1240.69 2510.42 1234.71 2509.13 1229.06 2507.4 1223.94 2505.33 1219.18 2502.92 1214.9 2500.05 1211.01 2496.86 1207.64 2493.25 1204.64 2489.3 1202.19 2484.93 1200.11 2480.24 1198.58 2475.2 1197.43 2469.84 1196.79 2464.06 1196.54 2456.76 1197 2450.07 1198.19C2450 1198.2 2449.93 1198.22 2449.87 1198.24L2443.44 1200.37 2437.56 1203.19C2437.5 1203.22 2437.43 1203.26 2437.37 1203.3L2431.77 1207.11 2426.64 1211.74 2421.97 1217.13 2418.23 1222.6 2419.96 1222.6 2419.96 1135.23C2419.96 1134.4 2419.29 1133.73 2418.46 1133.73L2396.46 1133.73C2395.63 1133.73 2394.96 1134.4 2394.96 1135.23ZM2397.96 1136.73 2416.96 1136.73 2416.96 1224.1C2416.96 1224.93 2417.63 1225.6 2418.46 1225.6L2419.02 1225.6C2419.52 1225.6 2419.98 1225.36 2420.26 1224.95L2424.45 1218.82 2428.91 1213.71 2433.78 1209.34 2438.96 1205.84 2444.73 1203.08 2450.7 1201.12 2457.29 1199.95 2464.24 1199.54 2469.71 1199.79 2474.85 1200.4 2479.56 1201.5 2483.99 1202.96 2488 1204.89 2491.67 1207.19 2494.94 1209.94 2497.87 1213.07 2500.5 1216.68 2502.72 1220.65 2504.65 1225.14 2506.29 1230.02 2507.5 1235.37 2508.35 1241.14 2508.9 1247.42 2509.09 1254.08 2509.09 1337.29 2490.09 1337.29 2490.09 1259.54 2489.58 1249.4 2488.06 1240.47C2488.05 1240.4 2488.03 1240.32 2488.01 1240.25L2485.51 1232.87C2485.47 1232.78 2485.43 1232.68 2485.38 1232.6L2481.88 1226.6C2481.82 1226.49 2481.75 1226.4 2481.67 1226.31L2477.17 1221.63C2477.08 1221.53 2476.98 1221.45 2476.87 1221.39L2471.37 1218.01C2471.26 1217.95 2471.15 1217.89 2471.03 1217.86L2464.59 1215.86C2464.49 1215.83 2464.39 1215.81 2464.29 1215.8L2456.79 1215.11 2452.64 1215.29 2448.68 1215.87 2444.88 1216.91 2441.23 1218.33 2437.78 1220.08 2434.49 1222.3 2431.36 1224.96 2428.45 1227.93C2428.4 1227.98 2428.35 1228.04 2428.31 1228.1L2423.49 1234.79C2423.44 1234.86 2423.39 1234.95 2423.35 1235.03L2419.85 1242.53C2419.81 1242.62 2419.78 1242.71 2419.75 1242.81L2417.69 1251.25C2417.67 1251.33 2417.66 1251.41 2417.65 1251.49L2416.97 1260.8 2416.96 1337.29 2397.96 1337.29ZM2400.96 1334.29 2413.96 1334.29 2413.97 1260.58 2414.66 1251.27C2414.68 1251.02 2414.72 1250.78 2414.78 1250.53L2416.84 1242.1C2416.91 1241.81 2417.01 1241.53 2417.13 1241.26L2420.63 1233.76C2420.75 1233.51 2420.89 1233.26 2421.06 1233.04L2425.87 1226.35C2426 1226.17 2426.15 1225.99 2426.31 1225.83L2429.41 1222.68 2432.81 1219.82 2436.42 1217.41 2440.13 1215.54 2444.08 1214.01 2448.24 1212.9 2452.5 1212.29 2457.06 1212.12 2464.56 1212.81C2464.87 1212.84 2465.18 1212.9 2465.48 1212.99L2471.92 1214.99C2472.28 1215.1 2472.62 1215.26 2472.94 1215.45L2478.44 1218.83C2478.77 1219.03 2479.07 1219.27 2479.33 1219.55L2483.83 1224.24C2484.08 1224.49 2484.29 1224.78 2484.47 1225.08L2487.97 1231.08C2488.13 1231.35 2488.25 1231.62 2488.35 1231.91L2490.85 1239.28C2490.92 1239.51 2490.98 1239.73 2491.02 1239.97L2492.58 1249.25 2493.09 1259.54 2493.09 1334.29 2506.09 1334.29 2506.09 1254.16 2505.92 1247.69 2505.39 1241.58 2504.57 1236.04 2503.45 1230.98 2501.89 1226.33 2500.1 1222.12 2498.08 1218.45 2495.69 1215.13 2493.01 1212.24 2490.08 1209.73 2486.71 1207.6 2483.06 1205.81 2478.89 1204.42 2474.49 1203.38 2469.57 1202.79 2464.42 1202.53 2457.81 1202.91 2451.44 1204.04 2446.03 1205.79 2440.46 1208.45 2435.78 1211.57 2431.17 1215.68 2426.93 1220.52 2422.74 1226.64C2421.9 1227.87 2420.51 1228.6 2419.02 1228.6L2418.46 1228.6C2415.98 1228.6 2413.96 1226.59 2413.96 1224.1L2413.96 1139.73 2400.96 1139.73Z" fill="#FFFFFF"/><text fill="#000000" fill-opacity="0" font-family="Arial,Arial_MSFontService,sans-serif" font-size="277.25" x="1611.9" y="1373.32">PyTorch Gleam</text></g></svg>