<svg width="382" height="383" xmlns="http://www.w3.org/2000/svg" xmlns:xlink="http://www.w3.org/1999/xlink" overflow="hidden"><defs><clipPath id="clip0"><rect x="2229" y="1046" width="382" height="383"/></clipPath></defs><g clip-path="url(#clip0)" transform="translate(-2229 -1046)"><path d="M2229 1238 2311.5 1073 2528.5 1073 2611 1238 2528.5 1403 2311.5 1403Z" fill="#ECE340" fill-rule="evenodd"/><path d="M2420 1046 2585 1128.5 2585 1346.5 2420 1429 2255 1346.5 2255 1128.5Z" fill="#ECE340" fill-rule="evenodd"/><path d="M2320.5 1237.5C2375.73 1237.5 2420.5 1282.27 2420.5 1337.5" stroke="#FFFFFF" stroke-width="6.875" stroke-miterlimit="8" fill="none" fill-rule="evenodd"/><path d="M2420.5 1138.5C2420.5 1193.73 2375.73 1238.5 2320.5 1238.5" stroke="#FFFFFF" stroke-width="6.875" stroke-miterlimit="8" fill="none" fill-rule="evenodd"/><path d="M2521.5 1238.5C2466.27 1238.5 2421.5 1193.73 2421.5 1138.5" stroke="#FFFFFF" stroke-width="6.875" stroke-miterlimit="8" fill="none" fill-rule="evenodd"/><path d="M2421.5 1338C2421.5 1283.05 2466.27 1238.5 2521.5 1238.5" stroke="#FFFFFF" stroke-width="6.875" stroke-miterlimit="8" fill="none" fill-rule="evenodd"/><path d="M2336 1238.5C2382.67 1238.5 2420.5 1276.33 2420.5 1323" stroke="#FFFFFF" stroke-width="6.875" stroke-miterlimit="8" fill="none" fill-rule="evenodd"/><path d="M2420.5 1154.5C2420.5 1200.89 2382.67 1238.5 2336 1238.5" stroke="#FFFFFF" stroke-width="6.875" stroke-miterlimit="8" fill="none" fill-rule="evenodd"/><path d="M2505.5 1238.5C2459.11 1238.5 2421.5 1200.89 2421.5 1154.5" stroke="#FFFFFF" stroke-width="6.875" stroke-miterlimit="8" fill="none" fill-rule="evenodd"/><path d="M2421.5 1323C2421.5 1276.33 2459.11 1238.5 2505.5 1238.5" stroke="#FFFFFF" stroke-width="6.875" stroke-miterlimit="8" fill="none" fill-rule="evenodd"/></g></svg>